<?xml version="1.0" standalone="yes"?>

<svg version="1.1" viewBox="0.0 0.0 960.0 540.0" fill="none" stroke="none" stroke-linecap="square" stroke-miterlimit="10" xmlns="http://www.w3.org/2000/svg" xmlns:xlink="http://www.w3.org/1999/xlink"><clipPath id="p.0"><path d="m0 0l960.0 0l0 540.0l-960.0 0l0 -540.0z" clip-rule="nonzero"></path></clipPath><g clip-path="url(#p.0)"><path fill="#ffffff" d="m0 0l960.0 0l0 540.0l-960.0 0z" fill-rule="nonzero"></path><path fill="#000000" fill-opacity="0.0" d="m599.53546 55.742783l348.09448 0l0 422.39368l-348.09448 0z" fill-rule="nonzero"></path><path stroke="#595959" stroke-width="1.0" stroke-linejoin="round" stroke-linecap="butt" stroke-dasharray="4.0,3.0" d="m599.53546 55.742783l348.09448 0l0 422.39368l-348.09448 0z" fill-rule="nonzero"></path><path fill="#000000" d="m663.1079 82.66278l5.234375 -13.59375l1.9375 0l5.5625 13.59375l-2.046875 0l-1.59375 -4.125l-5.6875 0l-1.484375 4.125l-1.921875 0zm3.921875 -5.578125l4.609375 0l-1.40625 -3.78125q-0.65625 -1.703125 -0.96875 -2.8125q-0.265625 1.3125 -0.734375 2.59375l-1.5 4.0zm9.8029175 9.359375l0 -13.640625l1.53125 0l0 1.28125q0.53125 -0.75 1.203125 -1.125q0.6875 -0.375 1.640625 -0.375q1.265625 0 2.234375 0.65625q0.96875 0.640625 1.453125 1.828125q0.5 1.1875 0.5 2.59375q0 1.515625 -0.546875 2.734375q-0.546875 1.203125 -1.578125 1.84375q-1.03125 0.640625 -2.171875 0.640625q-0.84375 0 -1.515625 -0.34375q-0.65625 -0.359375 -1.078125 -0.890625l0 4.796875l-1.671875 0zm1.515625 -8.65625q0 1.90625 0.765625 2.8125q0.78125 0.90625 1.875 0.90625q1.109375 0 1.890625 -0.9375q0.796875 -0.9375 0.796875 -2.921875q0 -1.875 -0.78125 -2.8125q-0.765625 -0.9375 -1.84375 -0.9375q-1.0625 0 -1.890625 1.0q-0.8125 1.0 -0.8125 2.890625zm15.297607 3.65625q-0.9375 0.796875 -1.796875 1.125q-0.859375 0.3125 -1.84375 0.3125q-1.609375 0 -2.484375 -0.78125q-0.875 -0.796875 -0.875 -2.03125q0 -0.734375 0.328125 -1.328125q0.328125 -0.59375 0.859375 -0.953125q0.53125 -0.359375 1.203125 -0.546875q0.5 -0.140625 1.484375 -0.25q2.03125 -0.25 2.984375 -0.578125q0 -0.34375 0 -0.4375q0 -1.015625 -0.46875 -1.4375q-0.640625 -0.5625 -1.90625 -0.5625q-1.171875 0 -1.734375 0.40625q-0.5625 0.40625 -0.828125 1.46875l-1.640625 -0.234375q0.234375 -1.046875 0.734375 -1.6875q0.515625 -0.640625 1.46875 -0.984375q0.96875 -0.359375 2.25 -0.359375q1.265625 0 2.046875 0.296875q0.78125 0.296875 1.15625 0.75q0.375 0.453125 0.515625 1.140625q0.09375 0.421875 0.09375 1.53125l0 2.234375q0 2.328125 0.09375 2.953125q0.109375 0.609375 0.4375 1.171875l-1.75 0q-0.265625 -0.515625 -0.328125 -1.21875zm-0.140625 -3.71875q-0.90625 0.359375 -2.734375 0.625q-1.03125 0.140625 -1.453125 0.328125q-0.421875 0.1875 -0.65625 0.546875q-0.234375 0.359375 -0.234375 0.796875q0 0.671875 0.5 1.125q0.515625 0.4375 1.484375 0.4375q0.96875 0 1.71875 -0.421875q0.75 -0.4375 1.109375 -1.15625q0.265625 -0.578125 0.265625 -1.671875l0 -0.609375zm10.516357 1.328125l1.640625 0.21875q-0.265625 1.6875 -1.375 2.65625q-1.109375 0.953125 -2.734375 0.953125q-2.015625 0 -3.25 -1.3125q-1.21875 -1.328125 -1.21875 -3.796875q0 -1.59375 0.515625 -2.78125q0.53125 -1.203125 1.609375 -1.796875q1.09375 -0.609375 2.359375 -0.609375q1.609375 0 2.625 0.8125q1.015625 0.8125 1.3125 2.3125l-1.625 0.25q-0.234375 -1.0 -0.828125 -1.5q-0.59375 -0.5 -1.421875 -0.5q-1.265625 0 -2.0625 0.90625q-0.78125 0.90625 -0.78125 2.859375q0 1.984375 0.765625 2.890625q0.765625 0.890625 1.984375 0.890625q0.984375 0 1.640625 -0.59375q0.65625 -0.609375 0.84375 -1.859375zm2.890625 3.609375l0 -13.59375l1.671875 0l0 4.875q1.171875 -1.359375 2.953125 -1.359375q1.09375 0 1.890625 0.4375q0.8125 0.421875 1.15625 1.1875q0.359375 0.765625 0.359375 2.203125l0 6.25l-1.671875 0l0 -6.25q0 -1.25 -0.546875 -1.8125q-0.546875 -0.578125 -1.53125 -0.578125q-0.75 0 -1.40625 0.390625q-0.640625 0.375 -0.921875 1.046875q-0.28125 0.65625 -0.28125 1.8125l0 5.390625l-1.671875 0zm17.125671 -3.171875l1.71875 0.21875q-0.40625 1.5 -1.515625 2.34375q-1.09375 0.828125 -2.8125 0.828125q-2.15625 0 -3.421875 -1.328125q-1.265625 -1.328125 -1.265625 -3.734375q0 -2.484375 1.265625 -3.859375q1.28125 -1.375 3.328125 -1.375q1.984375 0 3.234375 1.34375q1.25 1.34375 1.25 3.796875q0 0.140625 -0.015625 0.4375l-7.34375 0q0.09375 1.625 0.921875 2.484375q0.828125 0.859375 2.0625 0.859375q0.90625 0 1.546875 -0.46875q0.65625 -0.484375 1.046875 -1.546875zm-5.484375 -2.703125l5.5 0q-0.109375 -1.234375 -0.625 -1.859375q-0.796875 -0.96875 -2.078125 -0.96875q-1.140625 0 -1.9375 0.78125q-0.78125 0.765625 -0.859375 2.046875zm13.902771 1.5l1.6875 -0.140625q0.125 1.015625 0.5625 1.671875q0.4375 0.65625 1.359375 1.0625q0.9375 0.40625 2.09375 0.40625q1.03125 0 1.8125 -0.3125q0.796875 -0.3125 1.1875 -0.84375q0.390625 -0.53125 0.390625 -1.15625q0 -0.640625 -0.375 -1.109375q-0.375 -0.484375 -1.234375 -0.8125q-0.546875 -0.21875 -2.421875 -0.65625q-1.875 -0.453125 -2.625 -0.859375q-0.96875 -0.515625 -1.453125 -1.265625q-0.46875 -0.75 -0.46875 -1.6875q0 -1.03125 0.578125 -1.921875q0.59375 -0.90625 1.703125 -1.359375q1.125 -0.46875 2.5 -0.46875q1.515625 0 2.671875 0.484375q1.15625 0.484375 1.765625 1.4375q0.625 0.9375 0.671875 2.140625l-1.71875 0.125q-0.140625 -1.28125 -0.953125 -1.9375q-0.796875 -0.671875 -2.359375 -0.671875q-1.625 0 -2.375 0.609375q-0.75 0.59375 -0.75 1.4375q0 0.734375 0.53125 1.203125q0.515625 0.46875 2.703125 0.96875q2.203125 0.5 3.015625 0.875q1.1875 0.546875 1.75 1.390625q0.578125 0.828125 0.578125 1.921875q0 1.09375 -0.625 2.0625q-0.625 0.953125 -1.796875 1.484375q-1.15625 0.53125 -2.609375 0.53125q-1.84375 0 -3.09375 -0.53125q-1.25 -0.546875 -1.96875 -1.625q-0.703125 -1.078125 -0.734375 -2.453125zm12.8342285 8.15625l0 -13.640625l1.53125 0l0 1.28125q0.53125 -0.75 1.203125 -1.125q0.6875 -0.375 1.640625 -0.375q1.265625 0 2.234375 0.65625q0.96875 0.640625 1.453125 1.828125q0.5 1.1875 0.5 2.59375q0 1.515625 -0.546875 2.734375q-0.546875 1.203125 -1.578125 1.84375q-1.03125 0.640625 -2.171875 0.640625q-0.84375 0 -1.515625 -0.34375q-0.65625 -0.359375 -1.078125 -0.890625l0 4.796875l-1.671875 0zm1.515625 -8.65625q0 1.90625 0.765625 2.8125q0.78125 0.90625 1.875 0.90625q1.109375 0 1.890625 -0.9375q0.796875 -0.9375 0.796875 -2.921875q0 -1.875 -0.78125 -2.8125q-0.765625 -0.9375 -1.84375 -0.9375q-1.0625 0 -1.890625 1.0q-0.8125 1.0 -0.8125 2.890625zm15.297607 3.65625q-0.9375 0.796875 -1.796875 1.125q-0.859375 0.3125 -1.84375 0.3125q-1.609375 0 -2.484375 -0.78125q-0.875 -0.796875 -0.875 -2.03125q0 -0.734375 0.328125 -1.328125q0.328125 -0.59375 0.859375 -0.953125q0.53125 -0.359375 1.203125 -0.546875q0.5 -0.140625 1.484375 -0.25q2.03125 -0.25 2.984375 -0.578125q0 -0.34375 0 -0.4375q0 -1.015625 -0.46875 -1.4375q-0.640625 -0.5625 -1.90625 -0.5625q-1.171875 0 -1.734375 0.40625q-0.5625 0.40625 -0.828125 1.46875l-1.640625 -0.234375q0.234375 -1.046875 0.734375 -1.6875q0.515625 -0.640625 1.46875 -0.984375q0.96875 -0.359375 2.25 -0.359375q1.265625 0 2.046875 0.296875q0.78125 0.296875 1.15625 0.75q0.375 0.453125 0.515625 1.140625q0.09375 0.421875 0.09375 1.53125l0 2.234375q0 2.328125 0.09375 2.953125q0.109375 0.609375 0.4375 1.171875l-1.75 0q-0.265625 -0.515625 -0.328125 -1.21875zm-0.140625 -3.71875q-0.90625 0.359375 -2.734375 0.625q-1.03125 0.140625 -1.453125 0.328125q-0.421875 0.1875 -0.65625 0.546875q-0.234375 0.359375 -0.234375 0.796875q0 0.671875 0.5 1.125q0.515625 0.4375 1.484375 0.4375q0.96875 0 1.71875 -0.421875q0.75 -0.4375 1.109375 -1.15625q0.265625 -0.578125 0.265625 -1.671875l0 -0.609375zm4.0631714 4.9375l0 -9.859375l1.5 0l0 1.5q0.578125 -1.046875 1.0625 -1.375q0.484375 -0.34375 1.078125 -0.34375q0.84375 0 1.71875 0.546875l-0.578125 1.546875q-0.609375 -0.359375 -1.234375 -0.359375q-0.546875 0 -0.984375 0.328125q-0.421875 0.328125 -0.609375 0.90625q-0.28125 0.890625 -0.28125 1.953125l0 5.15625l-1.671875 0zm6.2439575 0l0 -13.59375l1.671875 0l0 7.75l3.953125 -4.015625l2.15625 0l-3.765625 3.65625l4.140625 6.203125l-2.0625 0l-3.25 -5.03125l-1.171875 1.125l0 3.90625l-1.671875 0zm13.870789 -4.921875q0 -2.734375 1.53125 -4.0625q1.265625 -1.09375 3.09375 -1.09375q2.03125 0 3.3125 1.34375q1.296875 1.328125 1.296875 3.671875q0 1.90625 -0.578125 3.0q-0.5625 1.078125 -1.65625 1.6875q-1.078125 0.59375 -2.375 0.59375q-2.0625 0 -3.34375 -1.328125q-1.28125 -1.328125 -1.28125 -3.8125zm1.71875 0q0 1.890625 0.828125 2.828125q0.828125 0.9375 2.078125 0.9375q1.25 0 2.0625 -0.9375q0.828125 -0.953125 0.828125 -2.890625q0 -1.828125 -0.828125 -2.765625q-0.828125 -0.9375 -2.0625 -0.9375q-1.25 0 -2.078125 0.9375q-0.828125 0.9375 -0.828125 2.828125zm9.266357 4.921875l0 -9.859375l1.5 0l0 1.5q0.578125 -1.046875 1.0625 -1.375q0.484375 -0.34375 1.078125 -0.34375q0.84375 0 1.71875 0.546875l-0.578125 1.546875q-0.609375 -0.359375 -1.234375 -0.359375q-0.546875 0 -0.984375 0.328125q-0.421875 0.328125 -0.609375 0.90625q-0.28125 0.890625 -0.28125 1.953125l0 5.15625l-1.671875 0zm11.630371 0l0 -13.59375l5.125 0q1.359375 0 2.078125 0.125q1.0 0.171875 1.671875 0.640625q0.671875 0.46875 1.078125 1.3125q0.421875 0.84375 0.421875 1.84375q0 1.734375 -1.109375 2.9375q-1.09375 1.203125 -3.984375 1.203125l-3.484375 0l0 5.53125l-1.796875 0zm1.796875 -7.140625l3.515625 0q1.75 0 2.46875 -0.640625q0.734375 -0.65625 0.734375 -1.828125q0 -0.859375 -0.4375 -1.46875q-0.421875 -0.609375 -1.125 -0.796875q-0.453125 -0.125 -1.671875 -0.125l-3.484375 0l0 4.859375zm10.3497925 10.9375l-0.171875 -1.5625q0.546875 0.140625 0.953125 0.140625q0.546875 0 0.875 -0.1875q0.34375 -0.1875 0.5625 -0.515625q0.15625 -0.25 0.5 -1.25q0.046875 -0.140625 0.15625 -0.40625l-3.734375 -9.875l1.796875 0l2.046875 5.71875q0.40625 1.078125 0.71875 2.28125q0.28125 -1.15625 0.6875 -2.25l2.09375 -5.75l1.671875 0l-3.75 10.03125q-0.59375 1.625 -0.9375 2.234375q-0.4375 0.828125 -1.015625 1.203125q-0.578125 0.390625 -1.375 0.390625q-0.484375 0 -1.078125 -0.203125zm13.0625 -5.296875l0.234375 1.484375q-0.703125 0.140625 -1.265625 0.140625q-0.90625 0 -1.40625 -0.28125q-0.5 -0.296875 -0.703125 -0.75q-0.203125 -0.46875 -0.203125 -1.984375l0 -5.65625l-1.234375 0l0 -1.3125l1.234375 0l0 -2.4375l1.65625 -1.0l0 3.4375l1.6875 0l0 1.3125l-1.6875 0l0 5.75q0 0.71875 0.078125 0.921875q0.09375 0.203125 0.296875 0.328125q0.203125 0.125 0.578125 0.125q0.265625 0 0.734375 -0.078125zm1.5270386 1.5l0 -13.59375l1.671875 0l0 4.875q1.171875 -1.359375 2.953125 -1.359375q1.09375 0 1.890625 0.4375q0.8125 0.421875 1.15625 1.1875q0.359375 0.765625 0.359375 2.203125l0 6.25l-1.671875 0l0 -6.25q0 -1.25 -0.546875 -1.8125q-0.546875 -0.578125 -1.53125 -0.578125q-0.75 0 -1.40625 0.390625q-0.640625 0.375 -0.921875 1.046875q-0.28125 0.65625 -0.28125 1.8125l0 5.390625l-1.671875 0zm9.750732 -4.921875q0 -2.734375 1.53125 -4.0625q1.265625 -1.09375 3.09375 -1.09375q2.03125 0 3.3125 1.34375q1.296875 1.328125 1.296875 3.671875q0 1.90625 -0.578125 3.0q-0.5625 1.078125 -1.65625 1.6875q-1.078125 0.59375 -2.375 0.59375q-2.0625 0 -3.34375 -1.328125q-1.28125 -1.328125 -1.28125 -3.8125zm1.71875 0q0 1.890625 0.828125 2.828125q0.828125 0.9375 2.078125 0.9375q1.25 0 2.0625 -0.9375q0.828125 -0.953125 0.828125 -2.890625q0 -1.828125 -0.828125 -2.765625q-0.828125 -0.9375 -2.0625 -0.9375q-1.25 0 -2.078125 0.9375q-0.828125 0.9375 -0.828125 2.828125zm9.281982 4.921875l0 -9.859375l1.5 0l0 1.40625q1.09375 -1.625 3.140625 -1.625q0.890625 0 1.640625 0.328125q0.75 0.3125 1.109375 0.84375q0.375 0.515625 0.53125 1.21875q0.09375 0.46875 0.09375 1.625l0 6.0625l-1.671875 0l0 -6.0q0 -1.015625 -0.203125 -1.515625q-0.1875 -0.515625 -0.6875 -0.8125q-0.5 -0.296875 -1.171875 -0.296875q-1.0625 0 -1.84375 0.671875q-0.765625 0.671875 -0.765625 2.578125l0 5.375l-1.671875 0zm9.125732 0.234375l3.9375 -14.0625l1.34375 0l-3.9375 14.0625l-1.34375 0zm6.6832886 -0.234375l0 -13.59375l6.03125 0q1.8125 0 2.75 0.359375q0.953125 0.359375 1.515625 1.296875q0.5625 0.921875 0.5625 2.046875q0 1.453125 -0.9375 2.453125q-0.921875 0.984375 -2.890625 1.25q0.71875 0.34375 1.09375 0.671875q0.78125 0.734375 1.484375 1.8125l2.375 3.703125l-2.265625 0l-1.796875 -2.828125q-0.796875 -1.21875 -1.3125 -1.875q-0.5 -0.65625 -0.90625 -0.90625q-0.40625 -0.265625 -0.8125 -0.359375q-0.3125 -0.078125 -1.015625 -0.078125l-2.078125 0l0 6.046875l-1.796875 0zm1.796875 -7.59375l3.859375 0q1.234375 0 1.921875 -0.25q0.703125 -0.265625 1.0625 -0.828125q0.375 -0.5625 0.375 -1.21875q0 -0.96875 -0.703125 -1.578125q-0.703125 -0.625 -2.21875 -0.625l-4.296875 0l0 4.5z" fill-rule="nonzero"></path><path fill="#000000" fill-opacity="0.0" d="m30.968504 54.503937l554.92914 0l0 422.3937l-554.92914 0z" fill-rule="nonzero"></path><path stroke="#595959" stroke-width="1.0" stroke-linejoin="round" stroke-linecap="butt" stroke-dasharray="4.0,3.0" d="m30.968504 54.503937l554.92914 0l0 422.3937l-554.92914 0z" fill-rule="nonzero"></path><path fill="#000000" d="m249.805 81.423935l5.234375 -13.59375l1.9375 0l5.5625 13.59375l-2.046875 0l-1.59375 -4.125l-5.6875 0l-1.484375 4.125l-1.921875 0zm3.921875 -5.578125l4.609375 0l-1.40625 -3.78125q-0.65625 -1.703125 -0.96875 -2.8125q-0.265625 1.3125 -0.734375 2.59375l-1.5 4.0zm9.802948 9.359375l0 -13.640625l1.53125 0l0 1.28125q0.53125 -0.75 1.203125 -1.125q0.6875 -0.375 1.640625 -0.375q1.265625 0 2.234375 0.65625q0.96875 0.640625 1.453125 1.828125q0.5 1.1875 0.5 2.59375q0 1.515625 -0.546875 2.734375q-0.546875 1.203125 -1.578125 1.84375q-1.03125 0.640625 -2.171875 0.640625q-0.84375 0 -1.515625 -0.34375q-0.65625 -0.359375 -1.078125 -0.890625l0 4.796875l-1.671875 0zm1.515625 -8.65625q0 1.90625 0.765625 2.8125q0.78125 0.90625 1.875 0.90625q1.109375 0 1.890625 -0.9375q0.796875 -0.9375 0.796875 -2.921875q0 -1.875 -0.78125 -2.8125q-0.765625 -0.9375 -1.84375 -0.9375q-1.0625 0 -1.890625 1.0q-0.8125 1.0 -0.8125 2.890625zm15.297577 3.65625q-0.9375 0.796875 -1.796875 1.125q-0.859375 0.3125 -1.84375 0.3125q-1.609375 0 -2.484375 -0.78125q-0.875 -0.796875 -0.875 -2.03125q0 -0.734375 0.328125 -1.328125q0.328125 -0.59375 0.859375 -0.953125q0.53125 -0.359375 1.203125 -0.546875q0.5 -0.140625 1.484375 -0.25q2.03125 -0.25 2.984375 -0.578125q0 -0.34375 0 -0.4375q0 -1.015625 -0.46875 -1.4375q-0.640625 -0.5625 -1.90625 -0.5625q-1.171875 0 -1.734375 0.40625q-0.5625 0.40625 -0.828125 1.46875l-1.640625 -0.234375q0.234375 -1.046875 0.734375 -1.6875q0.515625 -0.640625 1.46875 -0.984375q0.96875 -0.359375 2.25 -0.359375q1.265625 0 2.046875 0.296875q0.78125 0.296875 1.15625 0.75q0.375 0.453125 0.515625 1.140625q0.09375 0.421875 0.09375 1.53125l0 2.234375q0 2.328125 0.09375 2.953125q0.109375 0.609375 0.4375 1.171875l-1.75 0q-0.265625 -0.515625 -0.328125 -1.21875zm-0.140625 -3.71875q-0.90625 0.359375 -2.734375 0.625q-1.03125 0.140625 -1.453125 0.328125q-0.421875 0.1875 -0.65625 0.546875q-0.234375 0.359375 -0.234375 0.796875q0 0.671875 0.5 1.125q0.515625 0.4375 1.484375 0.4375q0.96875 0 1.71875 -0.421875q0.75 -0.4375 1.109375 -1.15625q0.265625 -0.578125 0.265625 -1.671875l0 -0.609375zm10.516357 1.328125l1.640625 0.21875q-0.265625 1.6875 -1.375 2.65625q-1.109375 0.953125 -2.734375 0.953125q-2.015625 0 -3.25 -1.3125q-1.21875 -1.328125 -1.21875 -3.796875q0 -1.59375 0.515625 -2.78125q0.53125 -1.203125 1.609375 -1.796875q1.09375 -0.609375 2.359375 -0.609375q1.609375 0 2.625 0.8125q1.015625 0.8125 1.3125 2.3125l-1.625 0.25q-0.234375 -1.0 -0.828125 -1.5q-0.59375 -0.5 -1.421875 -0.5q-1.265625 0 -2.0625 0.90625q-0.78125 0.90625 -0.78125 2.859375q0 1.984375 0.765625 2.890625q0.765625 0.890625 1.984375 0.890625q0.984375 0 1.640625 -0.59375q0.65625 -0.609375 0.84375 -1.859375zm2.890625 3.609375l0 -13.59375l1.671875 0l0 4.875q1.171875 -1.359375 2.953125 -1.359375q1.09375 0 1.890625 0.4375q0.8125 0.421875 1.15625 1.1875q0.359375 0.765625 0.359375 2.203125l0 6.25l-1.671875 0l0 -6.25q0 -1.25 -0.546875 -1.8125q-0.546875 -0.578125 -1.53125 -0.578125q-0.75 0 -1.40625 0.390625q-0.640625 0.375 -0.921875 1.046875q-0.28125 0.65625 -0.28125 1.8125l0 5.390625l-1.671875 0zm17.125732 -3.171875l1.71875 0.21875q-0.40625 1.5 -1.515625 2.34375q-1.09375 0.828125 -2.8125 0.828125q-2.15625 0 -3.421875 -1.328125q-1.265625 -1.328125 -1.265625 -3.734375q0 -2.484375 1.265625 -3.859375q1.28125 -1.375 3.328125 -1.375q1.984375 0 3.234375 1.34375q1.25 1.34375 1.25 3.796875q0 0.140625 -0.015625 0.4375l-7.34375 0q0.09375 1.625 0.921875 2.484375q0.828125 0.859375 2.0625 0.859375q0.90625 0 1.546875 -0.46875q0.65625 -0.484375 1.046875 -1.546875zm-5.484375 -2.703125l5.5 0q-0.109375 -1.234375 -0.625 -1.859375q-0.796875 -0.96875 -2.078125 -0.96875q-1.140625 0 -1.9375 0.78125q-0.78125 0.765625 -0.859375 2.046875zm13.902771 1.5l1.6875 -0.140625q0.125 1.015625 0.5625 1.671875q0.4375 0.65625 1.359375 1.0625q0.9375 0.40625 2.09375 0.40625q1.03125 0 1.8125 -0.3125q0.796875 -0.3125 1.1875 -0.84375q0.390625 -0.53125 0.390625 -1.15625q0 -0.640625 -0.375 -1.109375q-0.375 -0.484375 -1.234375 -0.8125q-0.546875 -0.21875 -2.421875 -0.65625q-1.875 -0.453125 -2.625 -0.859375q-0.96875 -0.515625 -1.453125 -1.265625q-0.46875 -0.75 -0.46875 -1.6875q0 -1.03125 0.578125 -1.921875q0.59375 -0.90625 1.703125 -1.359375q1.125 -0.46875 2.5 -0.46875q1.515625 0 2.671875 0.484375q1.15625 0.484375 1.765625 1.4375q0.625 0.9375 0.671875 2.140625l-1.71875 0.125q-0.140625 -1.28125 -0.953125 -1.9375q-0.796875 -0.671875 -2.359375 -0.671875q-1.625 0 -2.375 0.609375q-0.75 0.59375 -0.75 1.4375q0 0.734375 0.53125 1.203125q0.515625 0.46875 2.703125 0.96875q2.203125 0.5 3.015625 0.875q1.1875 0.546875 1.75 1.390625q0.578125 0.828125 0.578125 1.921875q0 1.09375 -0.625 2.0625q-0.625 0.953125 -1.796875 1.484375q-1.15625 0.53125 -2.609375 0.53125q-1.84375 0 -3.09375 -0.53125q-1.25 -0.546875 -1.96875 -1.625q-0.703125 -1.078125 -0.734375 -2.453125zm12.8341675 8.15625l0 -13.640625l1.53125 0l0 1.28125q0.53125 -0.75 1.203125 -1.125q0.6875 -0.375 1.640625 -0.375q1.265625 0 2.234375 0.65625q0.96875 0.640625 1.453125 1.828125q0.5 1.1875 0.5 2.59375q0 1.515625 -0.546875 2.734375q-0.546875 1.203125 -1.578125 1.84375q-1.03125 0.640625 -2.171875 0.640625q-0.84375 0 -1.515625 -0.34375q-0.65625 -0.359375 -1.078125 -0.890625l0 4.796875l-1.671875 0zm1.515625 -8.65625q0 1.90625 0.765625 2.8125q0.78125 0.90625 1.875 0.90625q1.109375 0 1.890625 -0.9375q0.796875 -0.9375 0.796875 -2.921875q0 -1.875 -0.78125 -2.8125q-0.765625 -0.9375 -1.84375 -0.9375q-1.0625 0 -1.890625 1.0q-0.8125 1.0 -0.8125 2.890625zm15.297607 3.65625q-0.9375 0.796875 -1.796875 1.125q-0.859375 0.3125 -1.84375 0.3125q-1.609375 0 -2.484375 -0.78125q-0.875 -0.796875 -0.875 -2.03125q0 -0.734375 0.328125 -1.328125q0.328125 -0.59375 0.859375 -0.953125q0.53125 -0.359375 1.203125 -0.546875q0.5 -0.140625 1.484375 -0.25q2.03125 -0.25 2.984375 -0.578125q0 -0.34375 0 -0.4375q0 -1.015625 -0.46875 -1.4375q-0.640625 -0.5625 -1.90625 -0.5625q-1.171875 0 -1.734375 0.40625q-0.5625 0.40625 -0.828125 1.46875l-1.640625 -0.234375q0.234375 -1.046875 0.734375 -1.6875q0.515625 -0.640625 1.46875 -0.984375q0.96875 -0.359375 2.25 -0.359375q1.265625 0 2.046875 0.296875q0.78125 0.296875 1.15625 0.75q0.375 0.453125 0.515625 1.140625q0.09375 0.421875 0.09375 1.53125l0 2.234375q0 2.328125 0.09375 2.953125q0.109375 0.609375 0.4375 1.171875l-1.75 0q-0.265625 -0.515625 -0.328125 -1.21875zm-0.140625 -3.71875q-0.90625 0.359375 -2.734375 0.625q-1.03125 0.140625 -1.453125 0.328125q-0.421875 0.1875 -0.65625 0.546875q-0.234375 0.359375 -0.234375 0.796875q0 0.671875 0.5 1.125q0.515625 0.4375 1.484375 0.4375q0.96875 0 1.71875 -0.421875q0.75 -0.4375 1.109375 -1.15625q0.265625 -0.578125 0.265625 -1.671875l0 -0.609375zm4.0632324 4.9375l0 -9.859375l1.5 0l0 1.5q0.578125 -1.046875 1.0625 -1.375q0.484375 -0.34375 1.078125 -0.34375q0.84375 0 1.71875 0.546875l-0.578125 1.546875q-0.609375 -0.359375 -1.234375 -0.359375q-0.546875 0 -0.984375 0.328125q-0.421875 0.328125 -0.609375 0.90625q-0.28125 0.890625 -0.28125 1.953125l0 5.15625l-1.671875 0zm6.2438965 0l0 -13.59375l1.671875 0l0 7.75l3.953125 -4.015625l2.15625 0l-3.765625 3.65625l4.140625 6.203125l-2.0625 0l-3.25 -5.03125l-1.171875 1.125l0 3.90625l-1.671875 0z" fill-rule="nonzero"></path><path fill="#eeeeee" d="m53.26509 89.187225l0 0c0 -8.209373 27.174904 -14.8643875 60.696854 -14.8643875c33.521942 0 60.696854 6.655014 60.696854 14.8643875l0 59.457565c0 8.209381 -27.174911 14.864395 -60.696854 14.864395c-33.52195 0 -60.696854 -6.655014 -60.696854 -14.864395z" fill-rule="nonzero"></path><path fill="#000000" fill-opacity="0.0" d="m174.6588 89.187225l0 0c0 8.209381 -27.174911 14.864395 -60.696854 14.864395c-33.52195 0 -60.696854 -6.655014 -60.696854 -14.864395" fill-rule="nonzero"></path><path fill="#000000" fill-opacity="0.0" d="m53.26509 89.187225l0 0c0 -8.209373 27.174904 -14.8643875 60.696854 -14.8643875c33.521942 0 60.696854 6.655014 60.696854 14.8643875l0 59.457565c0 8.209381 -27.174911 14.864395 -60.696854 14.864395c-33.52195 0 -60.696854 -6.655014 -60.696854 -14.864395z" fill-rule="nonzero"></path><path stroke="#595959" stroke-width="1.0" stroke-linejoin="round" stroke-linecap="butt" d="m174.6588 89.187225l0 0c0 8.209381 -27.174911 14.864395 -60.696854 14.864395c-33.52195 0 -60.696854 -6.655014 -60.696854 -14.864395" fill-rule="nonzero"></path><path stroke="#595959" stroke-width="1.0" stroke-linejoin="round" stroke-linecap="butt" d="m53.26509 89.187225l0 0c0 -8.209373 27.174904 -14.8643875 60.696854 -14.8643875c33.521942 0 60.696854 6.655014 60.696854 14.8643875l0 59.457565c0 8.209381 -27.174911 14.864395 -60.696854 14.864395c-33.52195 0 -60.696854 -6.655014 -60.696854 -14.864395z" fill-rule="nonzero"></path><path fill="#000000" d="m90.83382 108.7057q3.078125 0 4.734375 1.640625q1.671875 1.625 1.671875 4.828125q0 3.578125 -1.65625 5.34375q-1.640625 1.75 -4.75 1.75l-4.765625 0l0 -13.5625l4.765625 0zm0.109375 12.046875q2.03125 0 3.25 -1.328125q1.234375 -1.328125 1.234375 -4.015625q0 -2.6875 -1.125 -3.9375q-1.109375 -1.25 -3.296875 -1.25l-3.140625 0l0 10.53125l3.078125 0zm12.010895 -8.53125q2.0 0 2.84375 0.71875q0.84375 0.703125 0.84375 1.90625q0 5.109375 0 5.671875q0 0.546875 0.5 0.546875q0.109375 0 0.234375 -0.015625q0.140625 -0.03125 0.265625 -0.078125l0 1.265625q-0.234375 0.125 -0.53125 0.1875q-0.28125 0.078125 -0.625 0.078125q-0.671875 0 -1.03125 -0.375q-0.34375 -0.375 -0.34375 -1.15625q-0.640625 0.765625 -1.515625 1.15625q-0.859375 0.375 -1.9375 0.375q-1.53125 0 -2.390625 -0.71875q-0.859375 -0.71875 -0.859375 -2.046875q0 -1.3125 0.84375 -2.09375q0.84375 -0.78125 3.96875 -1.171875q1.0625 -0.125 1.4375 -0.390625q0.375 -0.28125 0.375 -0.8125q0 -0.828125 -0.53125 -1.21875q-0.515625 -0.40625 -1.65625 -0.40625q-1.203125 0 -1.796875 0.453125q-0.59375 0.453125 -0.640625 1.40625l-1.625 0q0.078125 -1.625 1.15625 -2.453125q1.078125 -0.828125 3.015625 -0.828125zm-2.84375 7.40625q0 0.6875 0.5 1.0625q0.5 0.375 1.40625 0.375q1.359375 0 2.171875 -0.671875q0.828125 -0.671875 0.828125 -1.515625l0 -1.6875q-0.40625 0.296875 -1.0625 0.40625q-0.65625 0.09375 -1.71875 0.234375q-1.078125 0.15625 -1.609375 0.59375q-0.515625 0.421875 -0.515625 1.203125zm11.082947 -10.125l0 2.9375l1.96875 0l0 1.4375l-1.96875 0l0 6.140625q0 0.734375 0.484375 0.78125q0.5 0.046875 1.03125 0.046875l0.453125 0l0 1.421875l-1.34375 0q-1.328125 0 -1.78125 -0.46875q-0.453125 -0.484375 -0.453125 -1.59375l0 -6.328125l-1.671875 0l0 -1.4375l1.671875 0l0 -2.9375l1.609375 0zm7.6568756 2.71875q2.0 0 2.84375 0.71875q0.84375 0.703125 0.84375 1.90625q0 5.109375 0 5.671875q0 0.546875 0.5 0.546875q0.109375 0 0.234375 -0.015625q0.140625 -0.03125 0.265625 -0.078125l0 1.265625q-0.234375 0.125 -0.53125 0.1875q-0.28125 0.078125 -0.625 0.078125q-0.671875 0 -1.03125 -0.375q-0.34375 -0.375 -0.34375 -1.15625q-0.640625 0.765625 -1.515625 1.15625q-0.859375 0.375 -1.9375 0.375q-1.53125 0 -2.390625 -0.71875q-0.859375 -0.71875 -0.859375 -2.046875q0 -1.3125 0.84375 -2.09375q0.84375 -0.78125 3.96875 -1.171875q1.0625 -0.125 1.4375 -0.390625q0.375 -0.28125 0.375 -0.8125q0 -0.828125 -0.53125 -1.21875q-0.515625 -0.40625 -1.65625 -0.40625q-1.203125 0 -1.796875 0.453125q-0.59375 0.453125 -0.640625 1.40625l-1.625 0q0.078125 -1.625 1.15625 -2.453125q1.078125 -0.828125 3.015625 -0.828125zm-2.84375 7.40625q0 0.6875 0.5 1.0625q0.5 0.375 1.40625 0.375q1.359375 0 2.171875 -0.671875q0.828125 -0.671875 0.828125 -1.515625l0 -1.6875q-0.40625 0.296875 -1.0625 0.40625q-0.65625 0.09375 -1.71875 0.234375q-1.078125 0.15625 -1.609375 0.59375q-0.515625 0.421875 -0.515625 1.203125zm15.735001 -10.921875l0 1.96875l-1.609375 0l0 -1.96875l1.609375 0zm0 3.734375l0 9.828125l-1.609375 0l0 -9.828125l1.609375 0zm7.191696 -0.21875q1.78125 0 2.578125 0.90625q0.8125 0.90625 0.8125 2.59375l0 6.546875l-1.625 0l0 -6.703125q0 -0.84375 -0.53125 -1.375q-0.53125 -0.546875 -1.484375 -0.546875q-1.359375 0 -2.125 0.84375q-0.765625 0.828125 -0.765625 2.171875l0 5.609375l-1.609375 0l0 -9.828125l1.515625 0l0 1.5625l0.046875 0q0.53125 -0.921875 1.3125 -1.34375q0.78125 -0.4375 1.875 -0.4375z" fill-rule="nonzero"></path><path fill="#000000" d="m92.53824 130.7057l0 5.828125l7.140625 0l0 -5.828125l1.8125 0l0 13.5625l-1.8125 0l0 -6.21875l-7.140625 0l0 6.21875l-1.796875 0l0 -13.5625l1.796875 0zm16.441696 0q3.078125 0 4.734375 1.640625q1.671875 1.625 1.671875 4.828125q0 3.578125 -1.65625 5.34375q-1.640625 1.75 -4.75 1.75l-4.765625 0l0 -13.5625l4.765625 0zm0.109375 12.046875q2.03125 0 3.25 -1.328125q1.234375 -1.328125 1.234375 -4.015625q0 -2.6875 -1.125 -3.9375q-1.109375 -1.25 -3.296875 -1.25l-3.140625 0l0 10.53125l3.078125 0zm17.167145 -12.046875l0 1.515625l-7.109375 0l0 4.3125l6.234375 0l0 1.515625l-6.234375 0l0 6.21875l-1.796875 0l0 -13.5625l8.90625 0zm6.3690186 -0.328125q2.25 0 3.578125 1.09375q1.328125 1.09375 1.421875 3.203125l-1.71875 0q-0.15625 -1.390625 -1.0 -2.078125q-0.84375 -0.6875 -2.359375 -0.6875q-1.453125 0 -2.25 0.59375q-0.796875 0.59375 -0.796875 1.703125q0 0.796875 0.671875 1.3125q0.6875 0.515625 3.6875 1.109375q2.171875 0.453125 3.25 1.375q1.078125 0.90625 1.078125 2.546875q0 1.890625 -1.546875 2.96875q-1.546875 1.078125 -3.765625 1.078125q-2.453125 0 -4.015625 -1.234375q-1.5625 -1.234375 -1.578125 -3.5625l1.703125 0q0.03125 1.5625 1.109375 2.421875q1.09375 0.84375 2.84375 0.84375q1.640625 0 2.546875 -0.625q0.90625 -0.640625 0.90625 -1.84375q0 -0.953125 -0.828125 -1.53125q-0.828125 -0.59375 -3.0 -1.015625q-2.890625 -0.546875 -3.875 -1.40625q-0.984375 -0.875 -0.984375 -2.296875q0 -1.828125 1.375 -2.890625q1.390625 -1.078125 3.546875 -1.078125z" fill-rule="nonzero"></path><path fill="#eeeeee" d="m53.26509 234.11636l0 0c0 -8.209381 27.174904 -14.864395 60.696854 -14.864395c33.521942 0 60.696854 6.655014 60.696854 14.864395l0 59.45755c0 8.209381 -27.174911 14.86441 -60.696854 14.86441c-33.52195 0 -60.696854 -6.6550293 -60.696854 -14.86441z" fill-rule="nonzero"></path><path fill="#000000" fill-opacity="0.0" d="m174.6588 234.11636l0 0c0 8.209381 -27.174911 14.864395 -60.696854 14.864395c-33.52195 0 -60.696854 -6.655014 -60.696854 -14.864395" fill-rule="nonzero"></path><path fill="#000000" fill-opacity="0.0" d="m53.26509 234.11636l0 0c0 -8.209381 27.174904 -14.864395 60.696854 -14.864395c33.521942 0 60.696854 6.655014 60.696854 14.864395l0 59.45755c0 8.209381 -27.174911 14.86441 -60.696854 14.86441c-33.52195 0 -60.696854 -6.6550293 -60.696854 -14.86441z" fill-rule="nonzero"></path><path stroke="#595959" stroke-width="1.0" stroke-linejoin="round" stroke-linecap="butt" d="m174.6588 234.11636l0 0c0 8.209381 -27.174911 14.864395 -60.696854 14.864395c-33.52195 0 -60.696854 -6.655014 -60.696854 -14.864395" fill-rule="nonzero"></path><path stroke="#595959" stroke-width="1.0" stroke-linejoin="round" stroke-linecap="butt" d="m53.26509 234.11636l0 0c0 -8.209381 27.174904 -14.864395 60.696854 -14.864395c33.521942 0 60.696854 6.655014 60.696854 14.864395l0 59.45755c0 8.209381 -27.174911 14.86441 -60.696854 14.86441c-33.52195 0 -60.696854 -6.6550293 -60.696854 -14.86441z" fill-rule="nonzero"></path><path fill="#000000" d="m90.95025 253.63484l0 1.515625l-7.5625 0l0 4.3124847l7.046875 0l0 1.515625l-7.046875 0l0 4.703125l7.625 0l0 1.515625l-9.421875 0l0 -13.562485l9.359375 0zm3.0522308 3.7343597l2.359375 3.421875l0.015625 0l2.4375 -3.421875l1.9375 0l-3.375 4.53125l3.796875 5.296875l-2.078125 0l-2.734375 -4.0625l-2.734375 4.0625l-1.953125 0l3.6875 -5.171875l-3.421875 -4.65625l2.0625 0zm10.618301 -2.9374847l0 2.9374847l1.96875 0l0 1.4375l-1.96875 0l0 6.140625q0 0.734375 0.484375 0.78125q0.5 0.046875 1.03125 0.046875l0.453125 0l0 1.421875l-1.34375 0q-1.328125 0 -1.78125 -0.46875q-0.453125 -0.484375 -0.453125 -1.59375l0 -6.328125l-1.671875 0l0 -1.4375l1.671875 0l0 -2.9374847l1.609375 0zm7.7193756 2.7187347q2.109375 0 3.28125 1.53125q1.171875 1.515625 1.171875 3.890625l0 0.203125l-7.359375 0l0 0.109375q0 1.40625 0.8125 2.265625q0.828125 0.84375 2.25 0.84375q1.078125 0 1.703125 -0.5q0.640625 -0.5 0.84375 -1.421875l1.59375 0q-0.328125 1.640625 -1.4375 2.5q-1.09375 0.859375 -2.75 0.859375q-1.5625 0 -2.640625 -0.703125q-1.0625 -0.703125 -1.578125 -1.953125q-0.5 -1.25 -0.5 -2.546875q0 -2.171875 1.296875 -3.625q1.3125 -1.453125 3.3125 -1.453125zm-2.90625 4.1875l5.640625 0q-0.078125 -1.1875 -0.875 -1.96875q-0.78125 -0.796875 -1.96875 -0.796875q-1.109375 0 -1.90625 0.75q-0.78125 0.75 -0.890625 2.015625zm13.739189 -4.203125q0.046875 0 0.09375 0q0.046875 0 0.125 0.015625l0 1.703125q-1.8125 0 -2.6875 0.96875q-0.859375 0.96875 -0.859375 2.984375l0 4.390625l-1.625 0l0 -9.828125l1.53125 0l0 2.078125l0.03125 0q0.5625 -1.171875 1.390625 -1.734375q0.828125 -0.578125 2.0 -0.578125zm6.072052 0.015625q1.78125 0 2.578125 0.90625q0.8125 0.90625 0.8125 2.59375l0 6.546875l-1.625 0l0 -6.703125q0 -0.84375 -0.53125 -1.375q-0.53125 -0.546875 -1.484375 -0.546875q-1.359375 0 -2.125 0.84375q-0.765625 0.828125 -0.765625 2.171875l0 5.609375l-1.609375 0l0 -9.828125l1.515625 0l0 1.5625l0.046875 0q0.53125 -0.921875 1.3125 -1.34375q0.78125 -0.4375 1.875 -0.4375zm9.641342 0q2.0 0 2.84375 0.71875q0.84375 0.703125 0.84375 1.90625q0 5.109375 0 5.671875q0 0.546875 0.5 0.546875q0.109375 0 0.234375 -0.015625q0.140625 -0.03125 0.265625 -0.078125l0 1.265625q-0.234375 0.125 -0.53125 0.1875q-0.28125 0.078125 -0.625 0.078125q-0.671875 0 -1.03125 -0.375q-0.34375 -0.375 -0.34375 -1.15625q-0.640625 0.765625 -1.515625 1.15625q-0.859375 0.375 -1.9375 0.375q-1.53125 0 -2.390625 -0.71875q-0.859375 -0.71875 -0.859375 -2.046875q0 -1.3125 0.84375 -2.09375q0.84375 -0.78125 3.96875 -1.171875q1.0625 -0.125 1.4375 -0.390625q0.375 -0.28125 0.375 -0.8125q0 -0.828125 -0.53125 -1.21875q-0.515625 -0.40625 -1.65625 -0.40625q-1.203125 0 -1.796875 0.453125q-0.59375 0.453125 -0.640625 1.40625l-1.625 0q0.078125 -1.625 1.15625 -2.453125q1.078125 -0.828125 3.015625 -0.828125zm-2.84375 7.40625q0 0.6875 0.5 1.0625q0.5 0.375 1.40625 0.375q1.359375 0 2.171875 -0.671875q0.828125 -0.671875 0.828125 -1.515625l0 -1.6875q-0.40625 0.296875 -1.0625 0.40625q-0.65625 0.09375 -1.71875 0.234375q-1.078125 0.15625 -1.609375 0.59375q-0.515625 0.421875 -0.515625 1.203125zm10.551697 -10.92186l0 13.562485l-1.609375 0l0 -13.562485l1.609375 0z" fill-rule="nonzero"></path><path fill="#000000" d="m92.19087 276.4317l0 2.9375l1.96875 0l0 1.4375l-1.96875 0l0 6.140625q0 0.734375 0.484375 0.78125q0.5 0.046875 1.03125 0.046875l0.453125 0l0 1.421875l-1.34375 0q-1.328125 0 -1.78125 -0.46875q-0.453125 -0.484375 -0.453125 -1.59375l0 -6.328125l-1.671875 0l0 -1.4375l1.671875 0l0 -2.9375l1.609375 0zm7.6568756 2.71875q2.0 0 2.84375 0.71875q0.84375 0.703125 0.84375 1.90625q0 5.109375 0 5.671875q0 0.546875 0.5 0.546875q0.109375 0 0.234375 -0.015625q0.140625 -0.03125 0.265625 -0.078125l0 1.265625q-0.234375 0.125 -0.53125 0.1875q-0.28125 0.078125 -0.625 0.078125q-0.671875 0 -1.03125 -0.375q-0.34375 -0.375 -0.34375 -1.15625q-0.640625 0.765625 -1.515625 1.15625q-0.859375 0.375 -1.9375 0.375q-1.53125 0 -2.390625 -0.71875q-0.859375 -0.71875 -0.859375 -2.046875q0 -1.3125 0.84375 -2.09375q0.84375 -0.78125 3.96875 -1.171875q1.0625 -0.125 1.4375 -0.390625q0.375 -0.28125 0.375 -0.8125q0 -0.828125 -0.53125 -1.21875q-0.515625 -0.40625 -1.65625 -0.40625q-1.203125 0 -1.796875 0.453125q-0.59375 0.453125 -0.640625 1.40625l-1.625 0q0.078125 -1.625 1.15625 -2.453125q1.078125 -0.828125 3.015625 -0.828125zm-2.84375 7.40625q0 0.6875 0.5 1.0625q0.5 0.375 1.40625 0.375q1.359375 0 2.171875 -0.671875q0.828125 -0.671875 0.828125 -1.515625l0 -1.6875q-0.40625 0.296875 -1.0625 0.40625q-0.65625 0.09375 -1.71875 0.234375q-1.078125 0.15625 -1.609375 0.59375q-0.515625 0.421875 -0.515625 1.203125zm10.520447 -10.921875l0 5.078125l0.03125 0q0.375 -0.765625 1.1875 -1.15625q0.8125 -0.40625 1.953125 -0.40625q2.109375 0 3.3125 1.453125q1.203125 1.4375 1.203125 3.71875q0 2.28125 -1.203125 3.703125q-1.203125 1.40625 -3.265625 1.40625q-0.921875 0 -1.796875 -0.375q-0.875 -0.390625 -1.390625 -1.171875l-0.03125 0l0 1.3125l-1.625 0l0 -13.5625l1.625 0zm-0.0625 8.640625q0 1.71875 0.828125 2.71875q0.828125 1.0 2.265625 1.0q1.40625 0 2.171875 -1.0q0.78125 -1.0 0.78125 -2.78125q0 -1.59375 -0.8125 -2.609375q-0.8125 -1.03125 -2.25 -1.03125q-1.421875 0 -2.203125 1.046875q-0.78125 1.03125 -0.78125 2.65625zm11.152679 -8.640625l0 13.5625l-1.609375 0l0 -13.5625l1.609375 0zm6.519821 3.515625q2.109375 0 3.28125 1.53125q1.171875 1.515625 1.171875 3.890625l0 0.203125l-7.359375 0l0 0.109375q0 1.40625 0.8125 2.265625q0.828125 0.84375 2.25 0.84375q1.078125 0 1.703125 -0.5q0.640625 -0.5 0.84375 -1.421875l1.59375 0q-0.328125 1.640625 -1.4375 2.5q-1.09375 0.859375 -2.75 0.859375q-1.5625 0 -2.640625 -0.703125q-1.0625 -0.703125 -1.578125 -1.953125q-0.5 -1.25 -0.5 -2.546875q0 -2.171875 1.296875 -3.625q1.3125 -1.453125 3.3125 -1.453125zm-2.90625 4.1875l5.640625 0q-0.078125 -1.1875 -0.875 -1.96875q-0.78125 -0.796875 -1.96875 -0.796875q-1.109375 0 -1.90625 0.75q-0.78125 0.75 -0.890625 2.015625zm12.114197 -4.1875q1.984375 0 2.9375 0.78125q0.96875 0.765625 1.0625 2.28125l-1.609375 0l0 -0.015625q-0.0625 -0.78125 -0.6875 -1.203125q-0.609375 -0.421875 -1.578125 -0.421875q-0.984375 0 -1.546875 0.328125q-0.5625 0.328125 -0.5625 0.921875q0 0.53125 0.5 0.875q0.5 0.34375 1.5 0.5625l1.515625 0.34375q1.4375 0.3125 2.171875 0.96875q0.75 0.65625 0.75 1.765625q0 1.4375 -1.125 2.265625q-1.125 0.828125 -3.0625 0.828125q-1.890625 0 -3.0 -0.84375q-1.09375 -0.84375 -1.171875 -2.484375l1.625 0q0.03125 0.90625 0.71875 1.40625q0.703125 0.484375 1.921875 0.484375q1.171875 0 1.765625 -0.359375q0.609375 -0.375 0.609375 -1.09375q0 -0.671875 -0.609375 -1.046875q-0.59375 -0.390625 -2.4375 -0.765625q-1.859375 -0.359375 -2.625 -1.015625q-0.75 -0.671875 -0.75 -1.765625q0 -1.296875 1.046875 -2.046875q1.046875 -0.75 2.640625 -0.75z" fill-rule="nonzero"></path><path fill="#eeeeee" d="m53.26509 357.98688l121.39371 0l0 89.18634l-121.39371 0z" fill-rule="nonzero"></path><path stroke="#595959" stroke-width="1.0" stroke-linejoin="round" stroke-linecap="butt" d="m53.26509 357.98688l121.39371 0l0 89.18634l-121.39371 0z" fill-rule="nonzero"></path><path fill="#000000" d="m85.78355 373.93756l0 12.046875l7.1875 0l0 1.515625l-8.984375 0l0 -13.5625l1.796875 0zm12.547592 3.515625q2.234375 0 3.5 1.4375q1.265625 1.4375 1.265625 3.703125q0 2.296875 -1.296875 3.71875q-1.296875 1.421875 -3.46875 1.421875q-2.125 0 -3.453125 -1.390625q-1.3125 -1.40625 -1.3125 -3.75q0 -2.328125 1.28125 -3.734375q1.296875 -1.40625 3.484375 -1.40625zm-3.0625 5.140625q0 1.703125 0.859375 2.703125q0.875 1.0 2.203125 1.0q1.328125 0 2.1875 -1.0q0.875 -1.015625 0.875 -2.703125q0 -1.671875 -0.859375 -2.6875q-0.859375 -1.03125 -2.21875 -1.03125q-1.296875 0 -2.171875 1.015625q-0.875 1.0 -0.875 2.703125zm13.775269 -5.140625q2.234375 0 3.5 1.4375q1.265625 1.4375 1.265625 3.703125q0 2.296875 -1.296875 3.71875q-1.296875 1.421875 -3.46875 1.421875q-2.125 0 -3.453125 -1.390625q-1.3125 -1.40625 -1.3125 -3.75q0 -2.328125 1.28125 -3.734375q1.296875 -1.40625 3.484375 -1.40625zm-3.0625 5.140625q0 1.703125 0.859375 2.703125q0.875 1.0 2.203125 1.0q1.328125 0 2.1875 -1.0q0.875 -1.015625 0.875 -2.703125q0 -1.671875 -0.859375 -2.6875q-0.859375 -1.03125 -2.21875 -1.03125q-1.296875 0 -2.171875 1.015625q-0.875 1.0 -0.875 2.703125zm11.244019 -8.65625l0 8.03125l4.4843674 -4.296875l2.171875 0l-3.90625 3.578125l4.1875 6.25l-2.046875 0l-3.375 -5.125l-1.5156174 1.40625l0 3.71875l-1.609375 0l0 -13.5625l1.609375 0zm9.589638 3.734375l0 6.703125q0 0.828125 0.53125 1.375q0.53125 0.546875 1.46875 0.546875q1.390625 0 2.140625 -0.84375q0.765625 -0.84375 0.765625 -2.171875l0 -5.609375l1.625 0l0 9.828125l-1.53125 0l0 -1.5625l-0.03125 0q-0.546875 0.9375 -1.359375 1.375q-0.796875 0.421875 -1.84375 0.421875q-1.71875 0 -2.546875 -0.890625q-0.828125 -0.890625 -0.828125 -2.625l0 -6.546875l1.609375 0zm13.610092 -0.21875q2.109375 0 3.3125 1.453125q1.203125 1.4375 1.203125 3.71875q0 2.28125 -1.203125 3.703125q-1.203125 1.40625 -3.265625 1.40625q-0.921875 0 -1.796875 -0.375q-0.875 -0.390625 -1.390625 -1.171875l-0.03125 0l0 5.078125l-1.625 0l0 -13.59375l1.625 0l0 1.34375l0.03125 0q0.375 -0.765625 1.1875 -1.15625q0.828125 -0.40625 1.953125 -0.40625zm-3.234375 5.125q0 1.71875 0.828125 2.71875q0.828125 1.0 2.265625 1.0q1.40625 0 2.171875 -1.0q0.78125 -1.0 0.78125 -2.78125q0 -1.59375 -0.8125 -2.609375q-0.8125 -1.03125 -2.25 -1.03125q-1.421875 0 -2.203125 1.046875q-0.78125 1.03125 -0.78125 2.65625z" fill-rule="nonzero"></path><path fill="#000000" d="m92.19087 396.73444l0 2.9375l1.96875 0l0 1.4375l-1.96875 0l0 6.140625q0 0.734375 0.484375 0.78125q0.5 0.046875 1.03125 0.046875l0.453125 0l0 1.421875l-1.34375 0q-1.328125 0 -1.78125 -0.46875q-0.453125 -0.484375 -0.453125 -1.59375l0 -6.328125l-1.671875 0l0 -1.4375l1.671875 0l0 -2.9375l1.609375 0zm7.6568756 2.71875q2.0 0 2.84375 0.71875q0.84375 0.703125 0.84375 1.90625q0 5.109375 0 5.671875q0 0.546875 0.5 0.546875q0.109375 0 0.234375 -0.015625q0.140625 -0.03125 0.265625 -0.078125l0 1.265625q-0.234375 0.125 -0.53125 0.1875q-0.28125 0.078125 -0.625 0.078125q-0.671875 0 -1.03125 -0.375q-0.34375 -0.375 -0.34375 -1.15625q-0.640625 0.765625 -1.515625 1.15625q-0.859375 0.375 -1.9375 0.375q-1.53125 0 -2.390625 -0.71875q-0.859375 -0.71875 -0.859375 -2.046875q0 -1.3125 0.84375 -2.09375q0.84375 -0.78125 3.96875 -1.171875q1.0625 -0.125 1.4375 -0.390625q0.375 -0.28125 0.375 -0.8125q0 -0.828125 -0.53125 -1.21875q-0.515625 -0.40625 -1.65625 -0.40625q-1.203125 0 -1.796875 0.453125q-0.59375 0.453125 -0.640625 1.40625l-1.625 0q0.078125 -1.625 1.15625 -2.453125q1.078125 -0.828125 3.015625 -0.828125zm-2.84375 7.40625q0 0.6875 0.5 1.0625q0.5 0.375 1.40625 0.375q1.359375 0 2.171875 -0.671875q0.828125 -0.671875 0.828125 -1.515625l0 -1.6875q-0.40625 0.296875 -1.0625 0.40625q-0.65625 0.09375 -1.71875 0.234375q-1.078125 0.15625 -1.609375 0.59375q-0.515625 0.421875 -0.515625 1.203125zm10.520447 -10.921875l0 5.078125l0.03125 0q0.375 -0.765625 1.1875 -1.15625q0.8125 -0.40625 1.953125 -0.40625q2.109375 0 3.3125 1.453125q1.203125 1.4375 1.203125 3.71875q0 2.28125 -1.203125 3.703125q-1.203125 1.40625 -3.265625 1.40625q-0.921875 0 -1.796875 -0.375q-0.875 -0.390625 -1.390625 -1.171875l-0.03125 0l0 1.3125l-1.625 0l0 -13.5625l1.625 0zm-0.0625 8.640625q0 1.71875 0.828125 2.71875q0.828125 1.0 2.265625 1.0q1.40625 0 2.171875 -1.0q0.78125 -1.0 0.78125 -2.78125q0 -1.59375 -0.8125 -2.609375q-0.8125 -1.03125 -2.25 -1.03125q-1.421875 0 -2.203125 1.046875q-0.78125 1.03125 -0.78125 2.65625zm11.152679 -8.640625l0 13.5625l-1.609375 0l0 -13.5625l1.609375 0zm6.519821 3.515625q2.109375 0 3.28125 1.53125q1.171875 1.515625 1.171875 3.890625l0 0.203125l-7.359375 0l0 0.109375q0 1.40625 0.8125 2.265625q0.828125 0.84375 2.25 0.84375q1.078125 0 1.703125 -0.5q0.640625 -0.5 0.84375 -1.421875l1.59375 0q-0.328125 1.640625 -1.4375 2.5q-1.09375 0.859375 -2.75 0.859375q-1.5625 0 -2.640625 -0.703125q-1.0625 -0.703125 -1.578125 -1.953125q-0.5 -1.25 -0.5 -2.546875q0 -2.171875 1.296875 -3.625q1.3125 -1.453125 3.3125 -1.453125zm-2.90625 4.1875l5.640625 0q-0.078125 -1.1875 -0.875 -1.96875q-0.78125 -0.796875 -1.96875 -0.796875q-1.109375 0 -1.90625 0.75q-0.78125 0.75 -0.890625 2.015625zm12.114197 -4.1875q1.984375 0 2.9375 0.78125q0.96875 0.765625 1.0625 2.28125l-1.609375 0l0 -0.015625q-0.0625 -0.78125 -0.6875 -1.203125q-0.609375 -0.421875 -1.578125 -0.421875q-0.984375 0 -1.546875 0.328125q-0.5625 0.328125 -0.5625 0.921875q0 0.53125 0.5 0.875q0.5 0.34375 1.5 0.5625l1.515625 0.34375q1.4375 0.3125 2.171875 0.96875q0.75 0.65625 0.75 1.765625q0 1.4375 -1.125 2.265625q-1.125 0.828125 -3.0625 0.828125q-1.890625 0 -3.0 -0.84375q-1.09375 -0.84375 -1.171875 -2.484375l1.625 0q0.03125 0.90625 0.71875 1.40625q0.703125 0.484375 1.921875 0.484375q1.171875 0 1.765625 -0.359375q0.609375 -0.375 0.609375 -1.09375q0 -0.671875 -0.609375 -1.046875q-0.59375 -0.390625 -2.4375 -0.765625q-1.859375 -0.359375 -2.625 -1.015625q-0.75 -0.671875 -0.75 -1.765625q0 -1.296875 1.046875 -2.046875q1.046875 -0.75 2.640625 -0.75z" fill-rule="nonzero"></path><path fill="#000000" d="m81.07105 417.60944q-1.28125 2.0 -1.890625 4.125q-0.609375 2.125 -0.609375 4.640625q0 2.53125 0.609375 4.6875q0.609375 2.140625 1.890625 4.203125l-1.234375 0q-1.625 -2.546875 -2.3125 -4.640625q-0.671875 -2.109375 -0.671875 -4.25q0 -2.234375 0.75 -4.515625q0.765625 -2.296875 2.234375 -4.25l1.234375 0zm2.6405334 0.328125l0 1.96875l-1.609375 0l0 -1.96875l1.609375 0zm0 3.734375l0 11.140625q0 1.15625 -0.59375 1.796875q-0.578125 0.65625 -1.765625 0.65625q-0.21875 0 -0.421875 -0.015625q-0.203125 -0.015625 -0.40625 -0.0625l0 -1.390625q0.125 0.03125 0.265625 0.03125q0.125 0.015625 0.265625 0.015625q0.484375 -0.015625 0.640625 -0.109375q0.171875 -0.09375 0.28125 -0.34375q0.125 -0.234375 0.125 -0.828125l0 -10.890625l1.609375 0zm5.707321 -0.21875q1.984375 0 2.9375 0.78125q0.96875 0.765625 1.0625 2.28125l-1.609375 0l0 -0.015625q-0.0625 -0.78125 -0.6875 -1.203125q-0.609375 -0.421875 -1.578125 -0.421875q-0.984375 0 -1.546875 0.328125q-0.5625 0.328125 -0.5625 0.921875q0 0.53125 0.5 0.875q0.5 0.34375 1.5 0.5625l1.515625 0.34375q1.4375 0.3125 2.171875 0.96875q0.75 0.65625 0.75 1.765625q0 1.4375 -1.125 2.265625q-1.125 0.828125 -3.0625 0.828125q-1.890625 0 -3.0 -0.84375q-1.09375 -0.84375 -1.171875 -2.484375l1.625 0q0.03125 0.90625 0.71875 1.40625q0.703125 0.484375 1.921875 0.484375q1.171875 0 1.765625 -0.359375q0.609375 -0.375 0.609375 -1.09375q0 -0.671875 -0.609375 -1.046875q-0.59375 -0.390625 -2.4375 -0.765625q-1.859375 -0.359375 -2.625 -1.015625q-0.75 -0.671875 -0.75 -1.765625q0 -1.296875 1.046875 -2.046875q1.046875 -0.75 2.640625 -0.75zm10.296875 0q2.234375 0 3.5 1.4375q1.265625 1.4375 1.265625 3.703125q0 2.296875 -1.296875 3.71875q-1.296875 1.421875 -3.46875 1.421875q-2.125 0 -3.453125 -1.390625q-1.3125 -1.40625 -1.3125 -3.75q0 -2.328125 1.28125 -3.734375q1.296875 -1.40625 3.484375 -1.40625zm-3.0625 5.140625q0 1.703125 0.859375 2.703125q0.875 1.0 2.203125 1.0q1.328125 0 2.1875 -1.0q0.875 -1.015625 0.875 -2.703125q0 -1.671875 -0.859375 -2.6875q-0.859375 -1.03125 -2.21875 -1.03125q-1.296875 0 -2.171875 1.015625q-0.875 1.0 -0.875 2.703125zm14.290894 -5.140625q1.78125 0 2.578125 0.90625q0.8125 0.90625 0.8125 2.59375l0 6.546875l-1.625 0l0 -6.703125q0 -0.84375 -0.53125 -1.375q-0.53125 -0.546875 -1.484375 -0.546875q-1.359375 0 -2.125 0.84375q-0.765625 0.828125 -0.765625 2.171875l0 5.609375l-1.609375 0l0 -9.828125l1.515625 0l0 1.5625l0.046875 0q0.53125 -0.921875 1.3125 -1.34375q0.78125 -0.4375 1.875 -0.4375zm8.09446 7.9375l0 2.03125q0 1.046875 -0.515625 1.796875q-0.515625 0.75 -1.5781174 1.078125l0 -0.953125q0.49999237 -0.171875 0.7968674 -0.640625q0.3125 -0.453125 0.3125 -1.09375l0 -0.109375l-1.1249924 0l0 -2.109375l2.1093674 0zm10.132233 -10.65625l0 2.9375l1.96875 0l0 1.4375l-1.96875 0l0 6.140625q0 0.734375 0.484375 0.78125q0.5 0.046875 1.03125 0.046875l0.453125 0l0 1.421875l-1.34375 0q-1.328125 0 -1.78125 -0.46875q-0.453125 -0.484375 -0.453125 -1.59375l0 -6.328125l-1.671875 0l0 -1.4375l1.671875 0l0 -2.9375l1.609375 0zm4.9225006 2.9375l2.359375 3.421875l0.015625 0l2.4375 -3.421875l1.9375 0l-3.375 4.53125l3.796875 5.296875l-2.078125 0l-2.734375 -4.0625l-2.734375 4.0625l-1.953125 0l3.6875 -5.171875l-3.421875 -4.65625l2.0625 0zm10.618301 -2.9375l0 2.9375l1.96875 0l0 1.4375l-1.96875 0l0 6.140625q0 0.734375 0.484375 0.78125q0.5 0.046875 1.03125 0.046875l0.453125 0l0 1.421875l-1.34375 0q-1.328125 0 -1.78125 -0.46875q-0.453125 -0.484375 -0.453125 -1.59375l0 -6.328125l-1.671875 0l0 -1.4375l1.671875 0l0 -2.9375l1.609375 0zm3.4693756 -1.125q1.515625 2.34375 2.25 4.484375q0.734375 2.125 0.734375 4.40625q0 2.3125 -0.78125 4.5625q-0.765625 2.25 -2.203125 4.203125l-1.234375 0q1.265625 -2.015625 1.875 -4.140625q0.625 -2.125 0.625 -4.625q0 -2.53125 -0.625 -4.6875q-0.609375 -2.15625 -1.875 -4.203125l1.234375 0z" fill-rule="nonzero"></path><path fill="#eeeeee" d="m251.46194 219.24672l121.38583 0l0 89.19685l-121.38583 0z" fill-rule="nonzero"></path><path stroke="#595959" stroke-width="1.0" stroke-linejoin="round" stroke-linecap="butt" d="m251.46194 219.24672l121.38583 0l0 89.19685l-121.38583 0z" fill-rule="nonzero"></path><path fill="#000000" d="m298.87866 235.20264q3.078125 0 4.734375 1.640625q1.671875 1.625 1.671875 4.828125q0 3.578125 -1.65625 5.34375q-1.640625 1.75 -4.75 1.75l-4.765625 0l0 -13.5625l4.765625 0zm0.109375 12.046875q2.03125 0 3.25 -1.328125q1.234375 -1.328125 1.234375 -4.015625q0 -2.6875 -1.125 -3.9375q-1.109375 -1.25 -3.296875 -1.25l-3.140625 0l0 10.53125l3.078125 0zm12.010895 -8.53125q2.0 0 2.84375 0.71875q0.84375 0.703125 0.84375 1.90625q0 5.109375 0 5.671875q0 0.546875 0.5 0.546875q0.109375 0 0.234375 -0.015625q0.14059448 -0.03125 0.26559448 -0.078125l0 1.265625q-0.23434448 0.125 -0.5312195 0.1875q-0.28125 0.078125 -0.625 0.078125q-0.671875 0 -1.03125 -0.375q-0.34375 -0.375 -0.34375 -1.15625q-0.640625 0.765625 -1.515625 1.15625q-0.859375 0.375 -1.9375 0.375q-1.53125 0 -2.390625 -0.71875q-0.859375 -0.71875 -0.859375 -2.046875q0 -1.3125 0.84375 -2.09375q0.84375 -0.78125 3.96875 -1.171875q1.0625 -0.125 1.4375 -0.390625q0.375 -0.28125 0.375 -0.8125q0 -0.828125 -0.53125 -1.21875q-0.515625 -0.40625 -1.65625 -0.40625q-1.203125 0 -1.796875 0.453125q-0.59375 0.453125 -0.640625 1.40625l-1.625 0q0.078125 -1.625 1.15625 -2.453125q1.078125 -0.828125 3.015625 -0.828125zm-2.84375 7.40625q0 0.6875 0.5 1.0625q0.5 0.375 1.40625 0.375q1.359375 0 2.171875 -0.671875q0.828125 -0.671875 0.828125 -1.515625l0 -1.6875q-0.40625 0.296875 -1.0625 0.40625q-0.65625 0.09375 -1.71875 0.234375q-1.078125 0.15625 -1.609375 0.59375q-0.515625 0.421875 -0.515625 1.203125zm11.082916 -10.125l0 2.9375l1.96875 0l0 1.4375l-1.96875 0l0 6.140625q0 0.734375 0.484375 0.78125q0.5 0.046875 1.03125 0.046875l0.453125 0l0 1.421875l-1.34375 0q-1.328125 0 -1.78125 -0.46875q-0.453125 -0.484375 -0.453125 -1.59375l0 -6.328125l-1.671875 0l0 -1.4375l1.671875 0l0 -2.9375l1.609375 0zm7.656891 2.71875q2.0 0 2.84375 0.71875q0.84375 0.703125 0.84375 1.90625q0 5.109375 0 5.671875q0 0.546875 0.5 0.546875q0.109375 0 0.234375 -0.015625q0.140625 -0.03125 0.265625 -0.078125l0 1.265625q-0.234375 0.125 -0.53125 0.1875q-0.28125 0.078125 -0.625 0.078125q-0.671875 0 -1.03125 -0.375q-0.34375 -0.375 -0.34375 -1.15625q-0.640625 0.765625 -1.515625 1.15625q-0.859375 0.375 -1.9375 0.375q-1.53125 0 -2.390625 -0.71875q-0.859375 -0.71875 -0.859375 -2.046875q0 -1.3125 0.84375 -2.09375q0.84375 -0.78125 3.96875 -1.171875q1.0625 -0.125 1.4375 -0.390625q0.375 -0.28125 0.375 -0.8125q0 -0.828125 -0.53125 -1.21875q-0.515625 -0.40625 -1.65625 -0.40625q-1.203125 0 -1.796875 0.453125q-0.59375 0.453125 -0.640625 1.40625l-1.625 0q0.078125 -1.625 1.15625 -2.453125q1.078125 -0.828125 3.015625 -0.828125zm-2.84375 7.40625q0 0.6875 0.5 1.0625q0.5 0.375 1.40625 0.375q1.359375 0 2.171875 -0.671875q0.828125 -0.671875 0.828125 -1.515625l0 -1.6875q-0.40625 0.296875 -1.0625 0.40625q-0.65625 0.09375 -1.71875 0.234375q-1.078125 0.15625 -1.609375 0.59375q-0.515625 0.421875 -0.515625 1.203125z" fill-rule="nonzero"></path><path fill="#000000" d="m272.25995 260.71826q2.109375 0 3.3125 1.453125q1.203125 1.4375 1.203125 3.71875q0 2.28125 -1.203125 3.703125q-1.203125 1.40625 -3.265625 1.40625q-0.921875 0 -1.796875 -0.375q-0.875 -0.390625 -1.390625 -1.171875l-0.03125 0l0 5.078125l-1.625 0l0 -13.59375l1.625 0l0 1.34375l0.03125 0q0.375 -0.765625 1.1875 -1.15625q0.828125 -0.40625 1.953125 -0.40625zm-3.234375 5.125q0 1.71875 0.828125 2.71875q0.828125 1.0 2.265625 1.0q1.40625 0 2.171875 -1.0q0.78125 -1.0 0.78125 -2.78125q0 -1.59375 -0.8125 -2.609375q-0.8125 -1.03125 -2.25 -1.03125q-1.421875 0 -2.203125 1.046875q-0.78125 1.03125 -0.78125 2.65625zm14.340179 -5.140625q0.046875 0 0.09375 0q0.046875 0 0.125 0.015625l0 1.703125q-1.8125 0 -2.6875 0.96875q-0.859375 0.96875 -0.859375 2.984375l0 4.390625l-1.625 0l0 -9.828125l1.53125 0l0 2.078125l0.03125 0q0.5625 -1.171875 1.390625 -1.734375q0.828125 -0.578125 2.0 -0.578125zm5.556427 0.015625q2.234375 0 3.5 1.4375q1.265625 1.4375 1.265625 3.703125q0 2.296875 -1.296875 3.71875q-1.296875 1.421875 -3.46875 1.421875q-2.125 0 -3.453125 -1.390625q-1.3125 -1.40625 -1.3125 -3.75q0 -2.328125 1.28125 -3.734375q1.296875 -1.40625 3.484375 -1.40625zm-3.0625 5.140625q0 1.703125 0.859375 2.703125q0.875 1.0 2.203125 1.0q1.328125 0 2.1875 -1.0q0.875 -1.015625 0.875 -2.703125q0 -1.671875 -0.859375 -2.6875q-0.859375 -1.03125 -2.21875 -1.03125q-1.296875 0 -2.171875 1.015625q-0.875 1.0 -0.875 2.703125zm13.634644 -5.140625q1.796875 0 2.921875 0.859375q1.125 0.84375 1.328125 2.515625l-1.671875 0q-0.203125 -0.953125 -0.84375 -1.453125q-0.625 -0.5 -1.59375 -0.5q-1.5 0 -2.28125 1.015625q-0.78125 1.0 -0.78125 2.828125q0 1.625 0.765625 2.609375q0.78125 0.96875 2.109375 0.96875q1.171875 0 1.84375 -0.625q0.6875 -0.640625 0.84375 -1.765625l1.65625 0q-0.265625 1.84375 -1.390625 2.84375q-1.109375 0.984375 -2.9375 0.984375q-2.140625 0 -3.375 -1.34375q-1.21875 -1.359375 -1.21875 -3.671875q0 -2.421875 1.234375 -3.84375q1.234375 -1.421875 3.390625 -1.421875zm10.004822 0q2.109375 0 3.28125 1.53125q1.171875 1.515625 1.171875 3.890625l0 0.203125l-7.359375 0l0 0.109375q0 1.40625 0.8125 2.265625q0.828125 0.84375 2.25 0.84375q1.078125 0 1.703125 -0.5q0.640625 -0.5 0.84375 -1.421875l1.59375 0q-0.328125 1.640625 -1.4375 2.5q-1.09375 0.859375 -2.75 0.859375q-1.5625 0 -2.640625 -0.703125q-1.0625 -0.703125 -1.578125 -1.953125q-0.5 -1.25 -0.5 -2.546875q0 -2.171875 1.296875 -3.625q1.3125 -1.453125 3.3125 -1.453125zm-2.90625 4.1875l5.640625 0q-0.078125 -1.1875 -0.875 -1.96875q-0.78125 -0.796875 -1.96875 -0.796875q-1.109375 0 -1.90625 0.75q-0.78125 0.75 -0.890625 2.015625zm12.114197 -4.1875q1.984375 0 2.9375 0.78125q0.96875 0.765625 1.0625 2.28125l-1.609375 0l0 -0.015625q-0.0625 -0.78125 -0.6875 -1.203125q-0.609375 -0.421875 -1.578125 -0.421875q-0.984375 0 -1.546875 0.328125q-0.5625 0.328125 -0.5625 0.921875q0 0.53125 0.5 0.875q0.5 0.34375 1.5 0.5625l1.515625 0.34375q1.4375 0.3125 2.171875 0.96875q0.75 0.65625 0.75 1.765625q0 1.4375 -1.125 2.265625q-1.125 0.828125 -3.0625 0.828125q-1.890625 0 -3.0 -0.84375q-1.09375 -0.84375 -1.171875 -2.484375l1.625 0q0.03125 0.90625 0.71875 1.40625q0.703125 0.484375 1.921875 0.484375q1.171875 0 1.765625 -0.359375q0.609375 -0.375 0.609375 -1.09375q0 -0.671875 -0.609375 -1.046875q-0.59375 -0.390625 -2.4375 -0.765625q-1.859375 -0.359375 -2.625 -1.015625q-0.75 -0.671875 -0.75 -1.765625q0 -1.296875 1.046875 -2.046875q1.046875 -0.75 2.640625 -0.75zm9.328125 0q1.984375 0 2.9375 0.78125q0.96875 0.765625 1.0625 2.28125l-1.609375 0l0 -0.015625q-0.0625 -0.78125 -0.6875 -1.203125q-0.609375 -0.421875 -1.578125 -0.421875q-0.984375 0 -1.546875 0.328125q-0.5625 0.328125 -0.5625 0.921875q0 0.53125 0.5 0.875q0.5 0.34375 1.5 0.5625l1.515625 0.34375q1.4375 0.3125 2.171875 0.96875q0.75 0.65625 0.75 1.765625q0 1.4375 -1.125 2.265625q-1.125 0.828125 -3.0625 0.828125q-1.890625 0 -3.0 -0.84375q-1.09375 -0.84375 -1.171875 -2.484375l1.625 0q0.03125 0.90625 0.71875 1.40625q0.703125 0.484375 1.921875 0.484375q1.171875 0 1.765625 -0.359375q0.609375 -0.375 0.609375 -1.09375q0 -0.671875 -0.609375 -1.046875q-0.59375 -0.390625 -2.4375 -0.765625q-1.859375 -0.359375 -2.625 -1.015625q-0.75 -0.671875 -0.75 -1.765625q0 -1.296875 1.046875 -2.046875q1.046875 -0.75 2.640625 -0.75zm7.765625 -3.515625l0 1.96875l-1.609375 0l0 -1.96875l1.609375 0zm0 3.734375l0 9.828125l-1.609375 0l0 -9.828125l1.609375 0zm7.191681 -0.21875q1.78125 0 2.578125 0.90625q0.8125 0.90625 0.8125 2.59375l0 6.546875l-1.625 0l0 -6.703125q0 -0.84375 -0.53125 -1.375q-0.53125 -0.546875 -1.484375 -0.546875q-1.359375 0 -2.125 0.84375q-0.765625 0.828125 -0.765625 2.171875l0 5.609375l-1.609375 0l0 -9.828125l1.515625 0l0 1.5625l0.046875 0q0.53125 -0.921875 1.3125 -1.34375q0.78125 -0.4375 1.875 -0.4375zm9.625732 0q1.03125 0 1.78125 0.453125q0.75 0.4375 1.15625 1.171875l0.015625 0l0 -1.40625l1.515625 0l0 9.09375q0 2.3125 -1.125 3.515625q-1.109375 1.203125 -3.421875 1.203125q-1.6875 0 -2.84375 -0.75q-1.15625 -0.734375 -1.234375 -2.125l1.625 0q0.03125 0.75 0.796875 1.171875q0.765625 0.421875 1.734375 0.421875q1.4375 0 2.1875 -0.953125q0.765625 -0.9375 0.765625 -2.8125l0 -0.609375l-0.03125 0q-0.390625 0.8125 -1.21875 1.296875q-0.8125 0.484375 -1.859375 0.484375q-1.984375 0 -3.1875 -1.375q-1.1875 -1.375 -1.1875 -3.59375q0 -2.25 1.1875 -3.71875q1.203125 -1.46875 3.34375 -1.46875zm-2.828125 4.984375q0 1.765625 0.734375 2.765625q0.734375 0.984375 2.046875 0.984375q1.328125 0 2.125 -1.03125q0.796875 -1.03125 0.796875 -2.765625q0 -1.578125 -0.734375 -2.546875q-0.734375 -0.96875 -2.078125 -0.96875q-1.359375 0 -2.125 0.96875q-0.765625 0.96875 -0.765625 2.59375z" fill-rule="nonzero"></path><path fill="#000000" d="m294.117 278.8745q-1.28125 2.0 -1.890625 4.125q-0.609375 2.125 -0.609375 4.640625q0 2.53125 0.609375 4.6875q0.609375 2.140625 1.890625 4.203125l-1.234375 0q-1.625 -2.546875 -2.3125 -4.640625q-0.671875 -2.109375 -0.671875 -4.25q0 -2.234375 0.75 -4.515625q0.765625 -2.296875 2.234375 -4.25l1.234375 0zm5.7655334 0q2.25 0 3.578125 1.09375q1.328125 1.09375 1.421875 3.203125l-1.71875 0q-0.15625 -1.390625 -1.0 -2.078125q-0.84375 -0.6875 -2.359375 -0.6875q-1.453125 0 -2.25 0.59375q-0.796875 0.59375 -0.796875 1.703125q0 0.796875 0.671875 1.3125q0.6875 0.515625 3.6875 1.109375q2.171875 0.453125 3.25 1.375q1.078125 0.90625 1.078125 2.546875q0 1.890625 -1.546875 2.96875q-1.546875 1.078125 -3.765625 1.078125q-2.453125 0 -4.015625 -1.234375q-1.5625 -1.234375 -1.578125 -3.5625l1.703125 0q0.03125 1.5625 1.109375 2.421875q1.09375 0.84375 2.84375 0.84375q1.640625 0 2.546875 -0.625q0.90625 -0.640625 0.90625 -1.84375q0 -0.953125 -0.828125 -1.53125q-0.828125 -0.59375 -3.0 -1.015625q-2.890625 -0.546875 -3.875 -1.40625q-0.984375 -0.875 -0.984375 -2.296875q0 -1.828125 1.375 -2.890625q1.390625 -1.078125 3.546875 -1.078125zm13.260162 0q1.96875 0 3.4375 0.921875q1.484375 0.90625 2.265625 2.5625q0.796875 1.65625 0.796875 3.625q0 1.515625 -0.5 2.9375q-0.5 1.40625 -1.5625 2.453125l1.796875 1.421875l-0.90625 1.140625l-2.078125 -1.65625q-0.6875 0.40625 -1.5 0.609375q-0.796875 0.203125 -1.75 0.203125q-1.953125 0 -3.4375 -0.90625q-1.46875 -0.921875 -2.265625 -2.5625q-0.796875 -1.640625 -0.796875 -3.640625q0 -3.078125 1.765625 -5.09375q1.78125 -2.015625 4.734375 -2.015625zm-4.6875 7.109375q0 1.515625 0.546875 2.828125q0.546875 1.296875 1.609375 2.03125q1.078125 0.71875 2.53125 0.71875q0.5 0 0.96875 -0.09375q0.46875 -0.09375 0.90625 -0.28125l-1.5 -1.203125l0.953125 -1.09375l1.8125 1.4375q0.75 -0.75 1.140625 -1.875q0.40625 -1.140625 0.40625 -2.46875q0 -2.40625 -1.25 -3.984375q-1.234375 -1.59375 -3.453125 -1.59375q-2.1875 0 -3.4375 1.59375q-1.234375 1.59375 -1.234375 3.984375zm14.924377 -6.78125l0 12.046875l7.1875 0l0 1.515625l-8.984375 0l0 -13.5625l1.796875 0zm8.141357 -0.328125q1.515625 2.34375 2.25 4.484375q0.734375 2.125 0.734375 4.40625q0 2.3125 -0.78125 4.5625q-0.765625 2.25 -2.203125 4.203125l-1.234375 0q1.265625 -2.015625 1.875 -4.140625q0.625 -2.125 0.625 -4.625q0 -2.53125 -0.625 -4.6875q-0.609375 -2.15625 -1.875 -4.203125l1.234375 0z" fill-rule="nonzero"></path><path fill="#eeeeee" d="m426.08792 219.24672l146.17325 0l0 89.19685l-146.17325 0z" fill-rule="nonzero"></path><path stroke="#595959" stroke-width="1.0" stroke-linejoin="round" stroke-linecap="butt" d="m426.08792 219.24672l146.17325 0l0 89.19685l-146.17325 0z" fill-rule="nonzero"></path><path fill="#000000" d="m477.9461 235.20264l0 1.515625l-7.109375 0l0 4.3125l6.234375 0l0 1.515625l-6.234375 0l0 6.21875l-1.796875 0l0 -13.5625l8.90625 0zm5.6190186 3.515625q2.109375 0 3.28125 1.53125q1.171875 1.515625 1.171875 3.890625l0 0.203125l-7.359375 0l0 0.109375q0 1.40625 0.8125 2.265625q0.828125 0.84375 2.25 0.84375q1.078125 0 1.703125 -0.5q0.640625 -0.5 0.84375 -1.421875l1.59375 0q-0.328125 1.640625 -1.4375 2.5q-1.09375 0.859375 -2.75 0.859375q-1.5625 0 -2.640625 -0.703125q-1.0625 -0.703125 -1.578125 -1.953125q-0.5 -1.25 -0.5 -2.546875q0 -2.171875 1.296875 -3.625q1.3125 -1.453125 3.3125 -1.453125zm-2.90625 4.1875l5.640625 0q-0.078125 -1.1875 -0.875 -1.96875q-0.78125 -0.796875 -1.96875 -0.796875q-1.109375 0 -1.90625 0.75q-0.78125 0.75 -0.890625 2.015625zm12.864197 -4.1875q2.0 0 2.84375 0.71875q0.84375 0.703125 0.84375 1.90625q0 5.109375 0 5.671875q0 0.546875 0.5 0.546875q0.109375 0 0.234375 -0.015625q0.140625 -0.03125 0.265625 -0.078125l0 1.265625q-0.234375 0.125 -0.53125 0.1875q-0.28125 0.078125 -0.625 0.078125q-0.671875 0 -1.03125 -0.375q-0.34375 -0.375 -0.34375 -1.15625q-0.640625 0.765625 -1.515625 1.15625q-0.859375 0.375 -1.9375 0.375q-1.53125 0 -2.390625 -0.71875q-0.859375 -0.71875 -0.859375 -2.046875q0 -1.3125 0.84375 -2.09375q0.84375 -0.78125 3.96875 -1.171875q1.0625 -0.125 1.4375 -0.390625q0.375 -0.28125 0.375 -0.8125q0 -0.828125 -0.53125 -1.21875q-0.515625 -0.40625 -1.65625 -0.40625q-1.203125 0 -1.796875 0.453125q-0.59375 0.453125 -0.640625 1.40625l-1.625 0q0.078125 -1.625 1.15625 -2.453125q1.078125 -0.828125 3.015625 -0.828125zm-2.84375 7.40625q0 0.6875 0.5 1.0625q0.5 0.375 1.40625 0.375q1.359375 0 2.171875 -0.671875q0.828125 -0.671875 0.828125 -1.515625l0 -1.6875q-0.40625 0.296875 -1.0625 0.40625q-0.65625 0.09375 -1.71875 0.234375q-1.078125 0.15625 -1.609375 0.59375q-0.515625 0.421875 -0.515625 1.203125zm11.082947 -10.125l0 2.9375l1.96875 0l0 1.4375l-1.96875 0l0 6.140625q0 0.734375 0.484375 0.78125q0.5 0.046875 1.03125 0.046875l0.453125 0l0 1.421875l-1.34375 0q-1.328125 0 -1.78125 -0.46875q-0.453125 -0.484375 -0.453125 -1.59375l0 -6.328125l-1.671875 0l0 -1.4375l1.671875 0l0 -2.9375l1.609375 0zm5.2506104 2.9375l0 6.703125q0 0.828125 0.53125 1.375q0.53125 0.546875 1.46875 0.546875q1.390625 0 2.140625 -0.84375q0.765625 -0.84375 0.765625 -2.171875l0 -5.609375l1.625 0l0 9.828125l-1.53125 0l0 -1.5625l-0.03125 0q-0.546875 0.9375 -1.359375 1.375q-0.796875 0.421875 -1.84375 0.421875q-1.71875 0 -2.546875 -0.890625q-0.828125 -0.890625 -0.828125 -2.625l0 -6.546875l1.609375 0zm13.656982 -0.234375q0.046875 0 0.09375 0q0.046875 0 0.125 0.015625l0 1.703125q-1.8125 0 -2.6875 0.96875q-0.859375 0.96875 -0.859375 2.984375l0 4.390625l-1.625 0l0 -9.828125l1.53125 0l0 2.078125l0.03125 0q0.5625 -1.171875 1.390625 -1.734375q0.828125 -0.578125 2.0 -0.578125zm5.4001465 0.015625q2.109375 0 3.28125 1.53125q1.171875 1.515625 1.171875 3.890625l0 0.203125l-7.359375 0l0 0.109375q0 1.40625 0.8125 2.265625q0.828125 0.84375 2.25 0.84375q1.078125 0 1.703125 -0.5q0.640625 -0.5 0.84375 -1.421875l1.59375 0q-0.328125 1.640625 -1.4375 2.5q-1.09375 0.859375 -2.75 0.859375q-1.5625 0 -2.640625 -0.703125q-1.0625 -0.703125 -1.578125 -1.953125q-0.5 -1.25 -0.5 -2.546875q0 -2.171875 1.296875 -3.625q1.3125 -1.453125 3.3125 -1.453125zm-2.90625 4.1875l5.640625 0q-0.078125 -1.1875 -0.875 -1.96875q-0.78125 -0.796875 -1.96875 -0.796875q-1.109375 0 -1.90625 0.75q-0.78125 0.75 -0.890625 2.015625z" fill-rule="nonzero"></path><path fill="#000000" d="m444.69034 260.71826q2.109375 0 3.28125 1.53125q1.171875 1.515625 1.171875 3.890625l0 0.203125l-7.359375 0l0 0.109375q0 1.40625 0.8125 2.265625q0.828125 0.84375 2.25 0.84375q1.078125 0 1.703125 -0.5q0.640625 -0.5 0.84375 -1.421875l1.59375 0q-0.328125 1.640625 -1.4375 2.5q-1.09375 0.859375 -2.75 0.859375q-1.5625 0 -2.640625 -0.703125q-1.0625 -0.703125 -1.578125 -1.953125q-0.5 -1.25 -0.5 -2.546875q0 -2.171875 1.296875 -3.625q1.3125 -1.453125 3.3125 -1.453125zm-2.90625 4.1875l5.640625 0q-0.078125 -1.1875 -0.875 -1.96875q-0.78125 -0.796875 -1.96875 -0.796875q-1.109375 0 -1.90625 0.75q-0.78125 0.75 -0.890625 2.015625zm10.129822 -3.96875l2.359375 3.421875l0.015625 0l2.4375 -3.421875l1.9375 0l-3.375 4.53125l3.796875 5.296875l-2.078125 0l-2.734375 -4.0625l-2.734375 4.0625l-1.953125 0l3.6875 -5.171875l-3.421875 -4.65625l2.0625 0zm10.618317 -2.9375l0 2.9375l1.96875 0l0 1.4375l-1.96875 0l0 6.140625q0 0.734375 0.484375 0.78125q0.5 0.046875 1.03125 0.046875l0.453125 0l0 1.421875l-1.34375 0q-1.328125 0 -1.78125 -0.46875q-0.453125 -0.484375 -0.453125 -1.59375l0 -6.328125l-1.671875 0l0 -1.4375l1.671875 0l0 -2.9375l1.609375 0zm8.53186 2.703125q0.046875 0 0.09375 0q0.046875 0 0.125 0.015625l0 1.703125q-1.8125 0 -2.6875 0.96875q-0.859375 0.96875 -0.859375 2.984375l0 4.390625l-1.625 0l0 -9.828125l1.53125 0l0 2.078125l0.03125 0q0.5625 -1.171875 1.390625 -1.734375q0.828125 -0.578125 2.0 -0.578125zm5.337677 0.015625q2.0 0 2.84375 0.71875q0.84375 0.703125 0.84375 1.90625q0 5.109375 0 5.671875q0 0.546875 0.5 0.546875q0.109375 0 0.234375 -0.015625q0.140625 -0.03125 0.265625 -0.078125l0 1.265625q-0.234375 0.125 -0.53125 0.1875q-0.28125 0.078125 -0.625 0.078125q-0.671875 0 -1.03125 -0.375q-0.34375 -0.375 -0.34375 -1.15625q-0.640625 0.765625 -1.515625 1.15625q-0.859375 0.375 -1.9375 0.375q-1.53125 0 -2.390625 -0.71875q-0.859375 -0.71875 -0.859375 -2.046875q0 -1.3125 0.84375 -2.09375q0.84375 -0.78125 3.96875 -1.171875q1.0625 -0.125 1.4375 -0.390625q0.375 -0.28125 0.375 -0.8125q0 -0.828125 -0.53125 -1.21875q-0.515625 -0.40625 -1.65625 -0.40625q-1.203125 0 -1.796875 0.453125q-0.59375 0.453125 -0.640625 1.40625l-1.625 0q0.078125 -1.625 1.15625 -2.453125q1.078125 -0.828125 3.015625 -0.828125zm-2.84375 7.40625q0 0.6875 0.5 1.0625q0.5 0.375 1.40625 0.375q1.359375 0 2.171875 -0.671875q0.828125 -0.671875 0.828125 -1.515625l0 -1.6875q-0.40625 0.296875 -1.0625 0.40625q-0.65625 0.09375 -1.71875 0.234375q-1.078125 0.15625 -1.609375 0.59375q-0.515625 0.421875 -0.515625 1.203125zm12.942322 -7.40625q1.796875 0 2.921875 0.859375q1.125 0.84375 1.328125 2.515625l-1.671875 0q-0.203125 -0.953125 -0.84375 -1.453125q-0.625 -0.5 -1.59375 -0.5q-1.5 0 -2.28125 1.015625q-0.78125 1.0 -0.78125 2.828125q0 1.625 0.765625 2.609375q0.78125 0.96875 2.109375 0.96875q1.171875 0 1.84375 -0.625q0.6875 -0.640625 0.84375 -1.765625l1.65625 0q-0.265625 1.84375 -1.390625 2.84375q-1.109375 0.984375 -2.9375 0.984375q-2.140625 0 -3.375 -1.34375q-1.21875 -1.359375 -1.21875 -3.671875q0 -2.421875 1.234375 -3.84375q1.234375 -1.421875 3.390625 -1.421875zm8.161072 -2.71875l0 2.9375l1.96875 0l0 1.4375l-1.96875 0l0 6.140625q0 0.734375 0.484375 0.78125q0.5 0.046875 1.03125 0.046875l0.453125 0l0 1.421875l-1.34375 0q-1.328125 0 -1.78125 -0.46875q-0.453125 -0.484375 -0.453125 -1.59375l0 -6.328125l-1.671875 0l0 -1.4375l1.671875 0l0 -2.9375l1.609375 0zm5.344391 -0.796875l0 1.96875l-1.609375 0l0 -1.96875l1.609375 0zm0 3.734375l0 9.828125l-1.609375 0l0 -9.828125l1.609375 0zm6.676056 -0.21875q2.234375 0 3.5 1.4375q1.265625 1.4375 1.265625 3.703125q0 2.296875 -1.296875 3.71875q-1.296875 1.421875 -3.46875 1.421875q-2.125 0 -3.453125 -1.390625q-1.3125 -1.40625 -1.3125 -3.75q0 -2.328125 1.28125 -3.734375q1.296875 -1.40625 3.484375 -1.40625zm-3.0625 5.140625q0 1.703125 0.859375 2.703125q0.875 1.0 2.203125 1.0q1.328125 0 2.1875 -1.0q0.875 -1.015625 0.875 -2.703125q0 -1.671875 -0.859375 -2.6875q-0.859375 -1.03125 -2.21875 -1.03125q-1.296875 0 -2.171875 1.015625q-0.875 1.0 -0.875 2.703125zm14.290924 -5.140625q1.78125 0 2.578125 0.90625q0.8125 0.90625 0.8125 2.59375l0 6.546875l-1.625 0l0 -6.703125q0 -0.84375 -0.53125 -1.375q-0.53125 -0.546875 -1.484375 -0.546875q-1.359375 0 -2.125 0.84375q-0.765625 0.828125 -0.765625 2.171875l0 5.609375l-1.609375 0l0 -9.828125l1.515625 0l0 1.5625l0.046875 0q0.53125 -0.921875 1.3125 -1.34375q0.78125 -0.4375 1.875 -0.4375zm14.824646 0q2.0 0 2.84375 0.71875q0.84375 0.703125 0.84375 1.90625q0 5.109375 0 5.671875q0 0.546875 0.5 0.546875q0.109375 0 0.234375 -0.015625q0.140625 -0.03125 0.265625 -0.078125l0 1.265625q-0.234375 0.125 -0.53125 0.1875q-0.28125 0.078125 -0.625 0.078125q-0.671875 0 -1.03125 -0.375q-0.34375 -0.375 -0.34375 -1.15625q-0.640625 0.765625 -1.515625 1.15625q-0.859375 0.375 -1.9375 0.375q-1.53125 0 -2.390625 -0.71875q-0.859375 -0.71875 -0.859375 -2.046875q0 -1.3125 0.84375 -2.09375q0.84375 -0.78125 3.96875 -1.171875q1.0625 -0.125 1.4375 -0.390625q0.375 -0.28125 0.375 -0.8125q0 -0.828125 -0.53125 -1.21875q-0.515625 -0.40625 -1.65625 -0.40625q-1.203125 0 -1.796875 0.453125q-0.59375 0.453125 -0.640625 1.40625l-1.625 0q0.078125 -1.625 1.15625 -2.453125q1.078125 -0.828125 3.015625 -0.828125zm-2.84375 7.40625q0 0.6875 0.5 1.0625q0.5 0.375 1.40625 0.375q1.359375 0 2.171875 -0.671875q0.828125 -0.671875 0.828125 -1.515625l0 -1.6875q-0.40625 0.296875 -1.0625 0.40625q-0.65625 0.09375 -1.71875 0.234375q-1.078125 0.15625 -1.609375 0.59375q-0.515625 0.421875 -0.515625 1.203125zm13.598572 -7.40625q1.78125 0 2.578125 0.90625q0.8125 0.90625 0.8125 2.59375l0 6.546875l-1.625 0l0 -6.703125q0 -0.84375 -0.53125 -1.375q-0.53125 -0.546875 -1.484375 -0.546875q-1.359375 0 -2.125 0.84375q-0.765625 0.828125 -0.765625 2.171875l0 5.609375l-1.609375 0l0 -9.828125l1.515625 0l0 1.5625l0.046875 0q0.53125 -0.921875 1.3125 -1.34375q0.78125 -0.4375 1.875 -0.4375zm14.391296 -3.515625l0 13.5625l-1.609375 0l0 -1.328125l-0.03125 0q-0.390625 0.765625 -1.21875 1.171875q-0.828125 0.390625 -1.921875 0.390625q-2.0625 0 -3.296875 -1.421875q-1.21875 -1.4375 -1.21875 -3.75q0 -2.265625 1.1875 -3.6875q1.203125 -1.421875 3.28125 -1.421875q0.96875 0 1.828125 0.390625q0.875 0.390625 1.359375 1.140625l0.03125 0l0 -5.046875l1.609375 0zm-7.59375 8.734375q0 1.578125 0.8125 2.609375q0.828125 1.015625 2.234375 1.015625q1.421875 0 2.203125 -1.015625q0.796875 -1.03125 0.796875 -2.6875q0 -1.671875 -0.8125 -2.6875q-0.8125 -1.03125 -2.3125 -1.03125q-1.390625 0 -2.15625 1.015625q-0.765625 1.015625 -0.765625 2.78125z" fill-rule="nonzero"></path><path fill="#000000" d="m441.97662 279.9995l0 2.9375l1.96875 0l0 1.4375l-1.96875 0l0 6.140625q0 0.734375 0.484375 0.78125q0.5 0.046875 1.03125 0.046875l0.453125 0l0 1.421875l-1.34375 0q-1.328125 0 -1.78125 -0.46875q-0.453125 -0.484375 -0.453125 -1.59375l0 -6.328125l-1.671875 0l0 -1.4375l1.671875 0l0 -2.9375l1.609375 0zm8.531891 2.703125q0.046875 0 0.09375 0q0.046875 0 0.125 0.015625l0 1.703125q-1.8125 0 -2.6875 0.96875q-0.859375 0.96875 -0.859375 2.984375l0 4.390625l-1.625 0l0 -9.828125l1.53125 0l0 2.078125l0.03125 0q0.5625 -1.171875 1.390625 -1.734375q0.828125 -0.578125 2.0 -0.578125zm5.337677 0.015625q2.0 0 2.84375 0.71875q0.84375 0.703125 0.84375 1.90625q0 5.109375 0 5.671875q0 0.546875 0.5 0.546875q0.109375 0 0.234375 -0.015625q0.140625 -0.03125 0.265625 -0.078125l0 1.265625q-0.234375 0.125 -0.53125 0.1875q-0.28125 0.078125 -0.625 0.078125q-0.671875 0 -1.03125 -0.375q-0.34375 -0.375 -0.34375 -1.15625q-0.640625 0.765625 -1.515625 1.15625q-0.859375 0.375 -1.9375 0.375q-1.53125 0 -2.390625 -0.71875q-0.859375 -0.71875 -0.859375 -2.046875q0 -1.3125 0.84375 -2.09375q0.84375 -0.78125 3.96875 -1.171875q1.0625 -0.125 1.4375 -0.390625q0.375 -0.28125 0.375 -0.8125q0 -0.828125 -0.53125 -1.21875q-0.515625 -0.40625 -1.65625 -0.40625q-1.203125 0 -1.796875 0.453125q-0.59375 0.453125 -0.640625 1.40625l-1.625 0q0.078125 -1.625 1.15625 -2.453125q1.078125 -0.828125 3.015625 -0.828125zm-2.84375 7.40625q0 0.6875 0.5 1.0625q0.5 0.375 1.40625 0.375q1.359375 0 2.171875 -0.671875q0.828125 -0.671875 0.828125 -1.515625l0 -1.6875q-0.40625 0.296875 -1.0625 0.40625q-0.65625 0.09375 -1.71875 0.234375q-1.078125 0.15625 -1.609375 0.59375q-0.515625 0.421875 -0.515625 1.203125zm13.598572 -7.40625q1.78125 0 2.578125 0.90625q0.8125 0.90625 0.8125 2.59375l0 6.546875l-1.625 0l0 -6.703125q0 -0.84375 -0.53125 -1.375q-0.53125 -0.546875 -1.484375 -0.546875q-1.359375 0 -2.125 0.84375q-0.765625 0.828125 -0.765625 2.171875l0 5.609375l-1.609375 0l0 -9.828125l1.515625 0l0 1.5625l0.046875 0q0.53125 -0.921875 1.3125 -1.34375q0.78125 -0.4375 1.875 -0.4375zm8.891327 0q1.984375 0 2.9375 0.78125q0.96875 0.765625 1.0625 2.28125l-1.609375 0l0 -0.015625q-0.0625 -0.78125 -0.6875 -1.203125q-0.609375 -0.421875 -1.578125 -0.421875q-0.984375 0 -1.546875 0.328125q-0.5625 0.328125 -0.5625 0.921875q0 0.53125 0.5 0.875q0.5 0.34375 1.5 0.5625l1.515625 0.34375q1.4375 0.3125 2.171875 0.96875q0.75 0.65625 0.75 1.765625q0 1.4375 -1.125 2.265625q-1.125 0.828125 -3.0625 0.828125q-1.890625 0 -3.0 -0.84375q-1.09375 -0.84375 -1.171875 -2.484375l1.625 0q0.03125 0.90625 0.71875 1.40625q0.703125 0.484375 1.921875 0.484375q1.171875 0 1.765625 -0.359375q0.609375 -0.375 0.609375 -1.09375q0 -0.671875 -0.609375 -1.046875q-0.59375 -0.390625 -2.4375 -0.765625q-1.859375 -0.359375 -2.625 -1.015625q-0.75 -0.671875 -0.75 -1.765625q0 -1.296875 1.046875 -2.046875q1.046875 -0.75 2.640625 -0.75zm9.421875 -3.671875q0.203125 0 0.53125 0.046875q0.34375 0.046875 0.53125 0.109375l0 1.40625q-0.1875 -0.078125 -0.453125 -0.109375q-0.265625 -0.03125 -0.453125 -0.03125q-0.6875 0 -0.96875 0.28125q-0.265625 0.28125 -0.265625 0.78125l0 1.40625l1.90625 0l0 1.4375l-1.90625 0l0 8.390625l-1.609375 0l0 -8.390625l-1.65625 0l0 -1.4375l1.65625 0l0 -1.53125q0 -1.078125 0.671875 -1.71875q0.6875 -0.640625 2.015625 -0.640625zm6.395355 3.671875q2.234375 0 3.5 1.4375q1.265625 1.4375 1.265625 3.703125q0 2.296875 -1.296875 3.71875q-1.296875 1.421875 -3.46875 1.421875q-2.125 0 -3.453125 -1.390625q-1.3125 -1.40625 -1.3125 -3.75q0 -2.328125 1.28125 -3.734375q1.296875 -1.40625 3.484375 -1.40625zm-3.0625 5.140625q0 1.703125 0.859375 2.703125q0.875 1.0 2.203125 1.0q1.328125 0 2.1875 -1.0q0.875 -1.015625 0.875 -2.703125q0 -1.671875 -0.859375 -2.6875q-0.859375 -1.03125 -2.21875 -1.03125q-1.296875 0 -2.171875 1.015625q-0.875 1.0 -0.875 2.703125zm14.431519 -5.15625q0.046875 0 0.09375 0q0.046875 0 0.125 0.015625l0 1.703125q-1.8125 0 -2.6875 0.96875q-0.859375 0.96875 -0.859375 2.984375l0 4.390625l-1.625 0l0 -9.828125l1.53125 0l0 2.078125l0.03125 0q0.5625 -1.171875 1.390625 -1.734375q0.828125 -0.578125 2.0 -0.578125zm6.056427 0.015625q1.0625 0 1.75 0.4375q0.6875 0.4375 0.9375 1.234375q0.5 -0.796875 1.3125305 -1.234375q0.8125 -0.4375 1.78125 -0.4375q1.65625 0 2.453125 0.75q0.8125 0.75 0.8125 2.03125l0 7.265625l-1.625 0l0 -6.515625q0 -1.0625 -0.453125 -1.578125q-0.4375 -0.53125 -1.453125 -0.53125q-1.203125 0 -1.875 0.703125q-0.6719055 0.703125 -0.6719055 1.75l0 6.171875l-1.625 0l0 -6.515625q0 -1.0625 -0.453125 -1.578125q-0.4375 -0.53125 -1.390625 -0.53125q-0.765625 0 -1.359375 0.375q-0.59375 0.359375 -0.9375 1.015625q-0.328125 0.640625 -0.328125 1.078125l0 6.15625l-1.609375 0l0 -9.828125l1.515625 0l0 1.453125l0.046875 0q0.546875 -0.84375 1.328125 -1.25q0.796875 -0.421875 1.84375 -0.421875zm15.195526 0q2.0 0 2.84375 0.71875q0.84375 0.703125 0.84375 1.90625q0 5.109375 0 5.671875q0 0.546875 0.5 0.546875q0.109375 0 0.234375 -0.015625q0.140625 -0.03125 0.265625 -0.078125l0 1.265625q-0.234375 0.125 -0.53125 0.1875q-0.28125 0.078125 -0.625 0.078125q-0.671875 0 -1.03125 -0.375q-0.34375 -0.375 -0.34375 -1.15625q-0.640625 0.765625 -1.515625 1.15625q-0.859375 0.375 -1.9375 0.375q-1.53125 0 -2.390625 -0.71875q-0.859375 -0.71875 -0.859375 -2.046875q0 -1.3125 0.84375 -2.09375q0.84375 -0.78125 3.96875 -1.171875q1.0625 -0.125 1.4375 -0.390625q0.375 -0.28125 0.375 -0.8125q0 -0.828125 -0.53125 -1.21875q-0.515625 -0.40625 -1.65625 -0.40625q-1.203125 0 -1.796875 0.453125q-0.59375 0.453125 -0.640625 1.40625l-1.625 0q0.078125 -1.625 1.15625 -2.453125q1.078125 -0.828125 3.015625 -0.828125zm-2.84375 7.40625q0 0.6875 0.5 1.0625q0.5 0.375 1.40625 0.375q1.359375 0 2.171875 -0.671875q0.828125 -0.671875 0.828125 -1.515625l0 -1.6875q-0.40625 0.296875 -1.0625 0.40625q-0.65625 0.09375 -1.71875 0.234375q-1.078125 0.15625 -1.609375 0.59375q-0.515625 0.421875 -0.515625 1.203125zm11.082947 -10.125l0 2.9375l1.96875 0l0 1.4375l-1.96875 0l0 6.140625q0 0.734375 0.484375 0.78125q0.5 0.046875 1.03125 0.046875l0.453125 0l0 1.421875l-1.34375 0q-1.328125 0 -1.78125 -0.46875q-0.453125 -0.484375 -0.453125 -1.59375l0 -6.328125l-1.671875 0l0 -1.4375l1.671875 0l0 -2.9375l1.609375 0zm5.3444214 -0.796875l0 1.96875l-1.609375 0l0 -1.96875l1.609375 0zm0 3.734375l0 9.828125l-1.609375 0l0 -9.828125l1.609375 0zm6.6760254 -0.21875q2.234375 0 3.5 1.4375q1.265625 1.4375 1.265625 3.703125q0 2.296875 -1.296875 3.71875q-1.296875 1.421875 -3.46875 1.421875q-2.125 0 -3.453125 -1.390625q-1.3125 -1.40625 -1.3125 -3.75q0 -2.328125 1.28125 -3.734375q1.296875 -1.40625 3.484375 -1.40625zm-3.0625 5.140625q0 1.703125 0.859375 2.703125q0.875 1.0 2.203125 1.0q1.328125 0 2.1875 -1.0q0.875 -1.015625 0.875 -2.703125q0 -1.671875 -0.859375 -2.6875q-0.859375 -1.03125 -2.21875 -1.03125q-1.296875 0 -2.171875 1.015625q-0.875 1.0 -0.875 2.703125zm14.290955 -5.140625q1.78125 0 2.578125 0.90625q0.8125 0.90625 0.8125 2.59375l0 6.546875l-1.625 0l0 -6.703125q0 -0.84375 -0.53125 -1.375q-0.53125 -0.546875 -1.484375 -0.546875q-1.359436 0 -2.125061 0.84375q-0.765625 0.828125 -0.765625 2.171875l0 5.609375l-1.609375 0l0 -9.828125l1.515625 0l0 1.5625l0.046875 0q0.53125 -0.921875 1.3125 -1.34375q0.78131104 -0.4375 1.875061 -0.4375z" fill-rule="nonzero"></path><path fill="#eeeeee" d="m621.1522 219.24672l121.385864 0l0 89.19685l-121.385864 0z" fill-rule="nonzero"></path><path stroke="#595959" stroke-width="1.0" stroke-linejoin="round" stroke-linecap="butt" d="m621.1522 219.24672l121.385864 0l0 89.19685l-121.385864 0z" fill-rule="nonzero"></path><path fill="#000000" d="m660.6167 246.20264l0 1.515625l-7.109375 0l0 4.3125l6.234375 0l0 1.515625l-6.234375 0l0 6.21875l-1.796875 0l0 -13.5625l8.90625 0zm5.6190186 3.515625q2.109375 0 3.28125 1.53125q1.171875 1.515625 1.171875 3.890625l0 0.203125l-7.359375 0l0 0.109375q0 1.40625 0.8125 2.265625q0.828125 0.84375 2.25 0.84375q1.078125 0 1.703125 -0.5q0.640625 -0.5 0.84375 -1.421875l1.59375 0q-0.328125 1.640625 -1.4375 2.5q-1.09375 0.859375 -2.75 0.859375q-1.5625 0 -2.640625 -0.703125q-1.0625 -0.703125 -1.578125 -1.953125q-0.5 -1.25 -0.5 -2.546875q0 -2.171875 1.296875 -3.625q1.3125 -1.453125 3.3125 -1.453125zm-2.90625 4.1875l5.640625 0q-0.078125 -1.1875 -0.875 -1.96875q-0.78125 -0.796875 -1.96875 -0.796875q-1.109375 0 -1.90625 0.75q-0.78125 0.75 -0.890625 2.015625zm12.864197 -4.1875q2.0 0 2.84375 0.71875q0.84375 0.703125 0.84375 1.90625q0 5.109375 0 5.671875q0 0.546875 0.5 0.546875q0.109375 0 0.234375 -0.015625q0.140625 -0.03125 0.265625 -0.078125l0 1.265625q-0.234375 0.125 -0.53125 0.1875q-0.28125 0.078125 -0.625 0.078125q-0.671875 0 -1.03125 -0.375q-0.34375 -0.375 -0.34375 -1.15625q-0.640625 0.765625 -1.515625 1.15625q-0.859375 0.375 -1.9375 0.375q-1.53125 0 -2.390625 -0.71875q-0.859375 -0.71875 -0.859375 -2.046875q0 -1.3125 0.84375 -2.09375q0.84375 -0.78125 3.96875 -1.171875q1.0625 -0.125 1.4375 -0.390625q0.375 -0.28125 0.375 -0.8125q0 -0.828125 -0.53125 -1.21875q-0.515625 -0.40625 -1.65625 -0.40625q-1.203125 0 -1.796875 0.453125q-0.59375 0.453125 -0.640625 1.40625l-1.625 0q0.078125 -1.625 1.15625 -2.453125q1.078125 -0.828125 3.015625 -0.828125zm-2.84375 7.40625q0 0.6875 0.5 1.0625q0.5 0.375 1.40625 0.375q1.359375 0 2.171875 -0.671875q0.828125 -0.671875 0.828125 -1.515625l0 -1.6875q-0.40625 0.296875 -1.0625 0.40625q-0.65625 0.09375 -1.71875 0.234375q-1.078125 0.15625 -1.609375 0.59375q-0.515625 0.421875 -0.515625 1.203125zm11.082947 -10.125l0 2.9375l1.96875 0l0 1.4375l-1.96875 0l0 6.140625q0 0.734375 0.484375 0.78125q0.5 0.046875 1.03125 0.046875l0.453125 0l0 1.421875l-1.34375 0q-1.328125 0 -1.78125 -0.46875q-0.453125 -0.484375 -0.453125 -1.59375l0 -6.328125l-1.671875 0l0 -1.4375l1.671875 0l0 -2.9375l1.609375 0zm5.2506104 2.9375l0 6.703125q0 0.828125 0.53125 1.375q0.53125 0.546875 1.46875 0.546875q1.390625 0 2.140625 -0.84375q0.765625 -0.84375 0.765625 -2.171875l0 -5.609375l1.625 0l0 9.828125l-1.53125 0l0 -1.5625l-0.03125 0q-0.546875 0.9375 -1.359375 1.375q-0.796875 0.421875 -1.84375 0.421875q-1.71875 0 -2.546875 -0.890625q-0.828125 -0.890625 -0.828125 -2.625l0 -6.546875l1.609375 0zm13.656982 -0.234375q0.046875 0 0.09375 0q0.046875 0 0.125 0.015625l0 1.703125q-1.8125 0 -2.6875 0.96875q-0.859375 0.96875 -0.859375 2.984375l0 4.390625l-1.625 0l0 -9.828125l1.53125 0l0 2.078125l0.03125 0q0.5625 -1.171875 1.390625 -1.734375q0.828125 -0.578125 2.0 -0.578125zm5.4002075 0.015625q2.109375 0 3.28125 1.53125q1.171875 1.515625 1.171875 3.890625l0 0.203125l-7.359375 0l0 0.109375q0 1.40625 0.8125 2.265625q0.828125 0.84375 2.25 0.84375q1.078125 0 1.703125 -0.5q0.640625 -0.5 0.84375 -1.421875l1.59375 0q-0.328125 1.640625 -1.4375 2.5q-1.09375 0.859375 -2.75 0.859375q-1.5625 0 -2.640625 -0.703125q-1.0625 -0.703125 -1.578125 -1.953125q-0.5 -1.25 -0.5 -2.546875q0 -2.171875 1.296875 -3.625q1.3125 -1.453125 3.3125 -1.453125zm-2.90625 4.1875l5.640625 0q-0.078125 -1.1875 -0.875 -1.96875q-0.78125 -0.796875 -1.96875 -0.796875q-1.109375 0 -1.90625 0.75q-0.78125 0.75 -0.890625 2.015625z" fill-rule="nonzero"></path><path fill="#000000" d="m642.8282 271.71826q1.03125 0 1.78125 0.453125q0.75 0.4375 1.15625 1.171875l0.015625 0l0 -1.40625l1.515625 0l0 9.09375q0 2.3125 -1.125 3.515625q-1.109375 1.203125 -3.421875 1.203125q-1.6875 0 -2.84375 -0.75q-1.15625 -0.734375 -1.234375 -2.125l1.625 0q0.03125 0.75 0.796875 1.171875q0.765625 0.421875 1.734375 0.421875q1.4375 0 2.1875 -0.953125q0.765625 -0.9375 0.765625 -2.8125l0 -0.609375l-0.03125 0q-0.390625 0.8125 -1.21875 1.296875q-0.8125 0.484375 -1.859375 0.484375q-1.984375 0 -3.1875 -1.375q-1.1875 -1.375 -1.1875 -3.59375q0 -2.25 1.1875 -3.71875q1.203125 -1.46875 3.34375 -1.46875zm-2.828125 4.984375q0 1.765625 0.734375 2.765625q0.734375 0.984375 2.046875 0.984375q1.328125 0 2.125 -1.03125q0.796875 -1.03125 0.796875 -2.765625q0 -1.578125 -0.734375 -2.546875q-0.734375 -0.96875 -2.078125 -0.96875q-1.359375 0 -2.125 0.96875q-0.765625 0.96875 -0.765625 2.59375zm13.619019 -4.984375q2.109375 0 3.28125 1.53125q1.171875 1.515625 1.171875 3.890625l0 0.203125l-7.359375 0l0 0.109375q0 1.40625 0.8125 2.265625q0.828125 0.84375 2.25 0.84375q1.078125 0 1.703125 -0.5q0.640625 -0.5 0.84375 -1.421875l1.59375 0q-0.328125 1.640625 -1.4375 2.5q-1.09375 0.859375 -2.75 0.859375q-1.5625 0 -2.640625 -0.703125q-1.0625 -0.703125 -1.578125 -1.953125q-0.5 -1.25 -0.5 -2.546875q0 -2.171875 1.296875 -3.625q1.3125 -1.453125 3.3125 -1.453125zm-2.90625 4.1875l5.640625 0q-0.078125 -1.1875 -0.875 -1.96875q-0.78125 -0.796875 -1.96875 -0.796875q-1.109375 0 -1.90625 0.75q-0.78125 0.75 -0.890625 2.015625zm13.598572 -4.1875q1.78125 0 2.578125 0.90625q0.8125 0.90625 0.8125 2.59375l0 6.546875l-1.625 0l0 -6.703125q0 -0.84375 -0.53125 -1.375q-0.53125 -0.546875 -1.484375 -0.546875q-1.359375 0 -2.125 0.84375q-0.765625 0.828125 -0.765625 2.171875l0 5.609375l-1.609375 0l0 -9.828125l1.515625 0l0 1.5625l0.046875 0q0.53125 -0.921875 1.3125 -1.34375q0.78125 -0.4375 1.875 -0.4375zm9.703857 0q2.109375 0 3.28125 1.53125q1.171875 1.515625 1.171875 3.890625l0 0.203125l-7.359375 0l0 0.109375q0 1.40625 0.8125 2.265625q0.828125 0.84375 2.25 0.84375q1.078125 0 1.703125 -0.5q0.640625 -0.5 0.84375 -1.421875l1.59375 0q-0.328125 1.640625 -1.4375 2.5q-1.09375 0.859375 -2.75 0.859375q-1.5625 0 -2.640625 -0.703125q-1.0625 -0.703125 -1.578125 -1.953125q-0.5 -1.25 -0.5 -2.546875q0 -2.171875 1.296875 -3.625q1.3125 -1.453125 3.3125 -1.453125zm-2.90625 4.1875l5.640625 0q-0.078125 -1.1875 -0.875 -1.96875q-0.78125 -0.796875 -1.96875 -0.796875q-1.109375 0 -1.90625 0.75q-0.78125 0.75 -0.890625 2.015625zm13.739197 -4.203125q0.046875 0 0.09375 0q0.046875 0 0.125 0.015625l0 1.703125q-1.8125 0 -2.6875 0.96875q-0.859375 0.96875 -0.859375 2.984375l0 4.390625l-1.625 0l0 -9.828125l1.53125 0l0 2.078125l0.03125 0q0.5625 -1.171875 1.390625 -1.734375q0.828125 -0.578125 2.0 -0.578125zm5.3376465 0.015625q2.0 0 2.84375 0.71875q0.84375 0.703125 0.84375 1.90625q0 5.109375 0 5.671875q0 0.546875 0.5 0.546875q0.109375 0 0.234375 -0.015625q0.140625 -0.03125 0.265625 -0.078125l0 1.265625q-0.234375 0.125 -0.53125 0.1875q-0.28125 0.078125 -0.625 0.078125q-0.671875 0 -1.03125 -0.375q-0.34375 -0.375 -0.34375 -1.15625q-0.640625 0.765625 -1.515625 1.15625q-0.859375 0.375 -1.9375 0.375q-1.53125 0 -2.390625 -0.71875q-0.859375 -0.71875 -0.859375 -2.046875q0 -1.3125 0.84375 -2.09375q0.84375 -0.78125 3.96875 -1.171875q1.0625 -0.125 1.4375 -0.390625q0.375 -0.28125 0.375 -0.8125q0 -0.828125 -0.53125 -1.21875q-0.515625 -0.40625 -1.65625 -0.40625q-1.203125 0 -1.796875 0.453125q-0.59375 0.453125 -0.640625 1.40625l-1.625 0q0.078125 -1.625 1.15625 -2.453125q1.078125 -0.828125 3.015625 -0.828125zm-2.84375 7.40625q0 0.6875 0.5 1.0625q0.5 0.375 1.40625 0.375q1.359375 0 2.171875 -0.671875q0.828125 -0.671875 0.828125 -1.515625l0 -1.6875q-0.40625 0.296875 -1.0625 0.40625q-0.65625 0.09375 -1.71875 0.234375q-1.078125 0.15625 -1.609375 0.59375q-0.515625 0.421875 -0.515625 1.203125zm11.082947 -10.125l0 2.9375l1.96875 0l0 1.4375l-1.96875 0l0 6.140625q0 0.734375 0.484375 0.78125q0.5 0.046875 1.03125 0.046875l0.453125 0l0 1.421875l-1.34375 0q-1.328125 0 -1.78125 -0.46875q-0.453125 -0.484375 -0.453125 -1.59375l0 -6.328125l-1.671875 0l0 -1.4375l1.671875 0l0 -2.9375l1.609375 0zm5.3443604 -0.796875l0 1.96875l-1.609375 0l0 -1.96875l1.609375 0zm0 3.734375l0 9.828125l-1.609375 0l0 -9.828125l1.609375 0zm6.6760864 -0.21875q2.234375 0 3.5 1.4375q1.265625 1.4375 1.265625 3.703125q0 2.296875 -1.296875 3.71875q-1.296875 1.421875 -3.46875 1.421875q-2.125 0 -3.453125 -1.390625q-1.3125 -1.40625 -1.3125 -3.75q0 -2.328125 1.28125 -3.734375q1.296875 -1.40625 3.484375 -1.40625zm-3.0625 5.140625q0 1.703125 0.859375 2.703125q0.875 1.0 2.203125 1.0q1.328125 0 2.1875 -1.0q0.875 -1.015625 0.875 -2.703125q0 -1.671875 -0.859375 -2.6875q-0.859375 -1.03125 -2.21875 -1.03125q-1.296875 0 -2.171875 1.015625q-0.875 1.0 -0.875 2.703125zm14.290894 -5.140625q1.78125 0 2.578125 0.90625q0.8125 0.90625 0.8125 2.59375l0 6.546875l-1.625 0l0 -6.703125q0 -0.84375 -0.53125 -1.375q-0.53125 -0.546875 -1.484375 -0.546875q-1.359375 0 -2.125 0.84375q-0.765625 0.828125 -0.765625 2.171875l0 5.609375l-1.609375 0l0 -9.828125l1.515625 0l0 1.5625l0.046875 0q0.53125 -0.921875 1.3125 -1.34375q0.78125 -0.4375 1.875 -0.4375z" fill-rule="nonzero"></path><path fill="#eeeeee" d="m791.4278 219.24672l146.17328 0l0 89.19685l-146.17328 0z" fill-rule="nonzero"></path><path stroke="#595959" stroke-width="1.0" stroke-linejoin="round" stroke-linecap="butt" d="m791.4278 219.24672l146.17328 0l0 89.19685l-146.17328 0z" fill-rule="nonzero"></path><path fill="#000000" d="m806.1215 246.20264l4.28125 11.390625l4.296875 -11.390625l2.46875 0l0 13.5625l-1.703125 0l0 -11.296875l-0.046875 0l-4.234375 11.296875l-1.546875 0l-4.234375 -11.296875l-0.03125 0l0 11.296875l-1.71875 0l0 -13.5625l2.46875 0zm17.720093 3.515625q2.234375 0 3.5 1.4375q1.265625 1.4375 1.265625 3.703125q0 2.296875 -1.296875 3.71875q-1.296875 1.421875 -3.46875 1.421875q-2.125 0 -3.453125 -1.390625q-1.3125 -1.40625 -1.3125 -3.75q0 -2.328125 1.28125 -3.734375q1.296875 -1.40625 3.484375 -1.40625zm-3.0625 5.140625q0 1.703125 0.859375 2.703125q0.875 1.0 2.203125 1.0q1.328125 0 2.1875 -1.0q0.875 -1.015625 0.875 -2.703125q0 -1.671875 -0.859375 -2.6875q-0.859375 -1.03125 -2.21875 -1.03125q-1.296875 0 -2.171875 1.015625q-0.875 1.0 -0.875 2.703125zm18.306519 -8.65625l0 13.5625l-1.609375 0l0 -1.328125l-0.03125 0q-0.390625 0.765625 -1.21875 1.171875q-0.828125 0.390625 -1.921875 0.390625q-2.0625 0 -3.296875 -1.421875q-1.21875 -1.4375 -1.21875 -3.75q0 -2.265625 1.1875 -3.6875q1.203125 -1.421875 3.28125 -1.421875q0.96875 0 1.828125 0.390625q0.875 0.390625 1.359375 1.140625l0.03125 0l0 -5.046875l1.609375 0zm-7.59375 8.734375q0 1.578125 0.8125 2.609375q0.828125 1.015625 2.234375 1.015625q1.421875 0 2.203125 -1.015625q0.796875 -1.03125 0.796875 -2.6875q0 -1.671875 -0.8125 -2.6875q-0.8125 -1.03125 -2.3125 -1.03125q-1.390625 0 -2.15625 1.015625q-0.765625 1.015625 -0.765625 2.78125zm13.96521 -5.21875q2.109375 0 3.28125 1.53125q1.171875 1.515625 1.171875 3.890625l0 0.203125l-7.359375 0l0 0.109375q0 1.40625 0.8125 2.265625q0.828125 0.84375 2.25 0.84375q1.078125 0 1.703125 -0.5q0.640625 -0.5 0.84375 -1.421875l1.59375 0q-0.328125 1.640625 -1.4375 2.5q-1.09375 0.859375 -2.75 0.859375q-1.5625 0 -2.640625 -0.703125q-1.0625 -0.703125 -1.578125 -1.953125q-0.5 -1.25 -0.5 -2.546875q0 -2.171875 1.296875 -3.625q1.3125 -1.453125 3.3125 -1.453125zm-2.90625 4.1875l5.640625 0q-0.078125 -1.1875 -0.875 -1.96875q-0.78125 -0.796875 -1.96875 -0.796875q-1.109375 0 -1.90625 0.75q-0.78125 0.75 -0.890625 2.015625zm10.551697 -7.703125l0 13.5625l-1.609375 0l0 -13.5625l1.609375 0zm11.71875 3.515625q1.796875 0 2.921875 0.859375q1.125 0.84375 1.328125 2.515625l-1.671875 0q-0.203125 -0.953125 -0.84375 -1.453125q-0.625 -0.5 -1.59375 -0.5q-1.5 0 -2.28125 1.015625q-0.78125 1.0 -0.78125 2.828125q0 1.625 0.765625 2.609375q0.78125 0.96875 2.109375 0.96875q1.171875 0 1.84375 -0.625q0.6875 -0.640625 0.84375 -1.765625l1.65625 0q-0.265625 1.84375 -1.390625 2.84375q-1.109375 0.984375 -2.9375 0.984375q-2.140625 0 -3.375 -1.34375q-1.21875 -1.359375 -1.21875 -3.671875q0 -2.421875 1.234375 -3.84375q1.234375 -1.421875 3.390625 -1.421875zm10.817322 -0.015625q0.046875 0 0.09375 0q0.046875 0 0.125 0.015625l0 1.703125q-1.8125 0 -2.6875 0.96875q-0.859375 0.96875 -0.859375 2.984375l0 4.390625l-1.625 0l0 -9.828125l1.53125 0l0 2.078125l0.03125 0q0.5625 -1.171875 1.390625 -1.734375q0.828125 -0.578125 2.0 -0.578125zm5.4001465 0.015625q2.109375 0 3.28125 1.53125q1.171875 1.515625 1.171875 3.890625l0 0.203125l-7.359375 0l0 0.109375q0 1.40625 0.8125 2.265625q0.828125 0.84375 2.25 0.84375q1.078125 0 1.703125 -0.5q0.640625 -0.5 0.84375 -1.421875l1.59375 0q-0.328125 1.640625 -1.4375 2.5q-1.09375 0.859375 -2.75 0.859375q-1.5625 0 -2.640625 -0.703125q-1.0625 -0.703125 -1.578125 -1.953125q-0.5 -1.25 -0.5 -2.546875q0 -2.171875 1.296875 -3.625q1.3125 -1.453125 3.3125 -1.453125zm-2.90625 4.1875l5.640625 0q-0.078125 -1.1875 -0.875 -1.96875q-0.78125 -0.796875 -1.96875 -0.796875q-1.109375 0 -1.90625 0.75q-0.78125 0.75 -0.890625 2.015625zm12.864197 -4.1875q2.0 0 2.84375 0.71875q0.84375 0.703125 0.84375 1.90625q0 5.109375 0 5.671875q0 0.546875 0.5 0.546875q0.109375 0 0.234375 -0.015625q0.140625 -0.03125 0.265625 -0.078125l0 1.265625q-0.234375 0.125 -0.53125 0.1875q-0.28125 0.078125 -0.625 0.078125q-0.671875 0 -1.03125 -0.375q-0.34375 -0.375 -0.34375 -1.15625q-0.640625 0.765625 -1.515625 1.15625q-0.859375 0.375 -1.9375 0.375q-1.53125 0 -2.390625 -0.71875q-0.859375 -0.71875 -0.859375 -2.046875q0 -1.3125 0.84375 -2.09375q0.84375 -0.78125 3.96875 -1.171875q1.0625 -0.125 1.4375 -0.390625q0.375 -0.28125 0.375 -0.8125q0 -0.828125 -0.53125 -1.21875q-0.515625 -0.40625 -1.65625 -0.40625q-1.203125 0 -1.796875 0.453125q-0.59375 0.453125 -0.640625 1.40625l-1.625 0q0.078125 -1.625 1.15625 -2.453125q1.078125 -0.828125 3.015625 -0.828125zm-2.84375 7.40625q0 0.6875 0.5 1.0625q0.5 0.375 1.40625 0.375q1.359375 0 2.171875 -0.671875q0.828125 -0.671875 0.828125 -1.515625l0 -1.6875q-0.40625 0.296875 -1.0625 0.40625q-0.65625 0.09375 -1.71875 0.234375q-1.078125 0.15625 -1.609375 0.59375q-0.515625 0.421875 -0.515625 1.203125zm11.082947 -10.125l0 2.9375l1.96875 0l0 1.4375l-1.96875 0l0 6.140625q0 0.734375 0.484375 0.78125q0.5 0.046875 1.03125 0.046875l0.453125 0l0 1.421875l-1.34375 0q-1.328125 0 -1.78125 -0.46875q-0.453125 -0.484375 -0.453125 -1.59375l0 -6.328125l-1.671875 0l0 -1.4375l1.671875 0l0 -2.9375l1.609375 0zm5.3443604 -0.796875l0 1.96875l-1.609375 0l0 -1.96875l1.609375 0zm0 3.734375l0 9.828125l-1.609375 0l0 -9.828125l1.609375 0zm6.6760864 -0.21875q2.234375 0 3.5 1.4375q1.265625 1.4375 1.265625 3.703125q0 2.296875 -1.296875 3.71875q-1.296875 1.421875 -3.46875 1.421875q-2.125 0 -3.453125 -1.390625q-1.3125 -1.40625 -1.3125 -3.75q0 -2.328125 1.28125 -3.734375q1.296875 -1.40625 3.484375 -1.40625zm-3.0625 5.140625q0 1.703125 0.859375 2.703125q0.875 1.0 2.203125 1.0q1.328125 0 2.1875 -1.0q0.875 -1.015625 0.875 -2.703125q0 -1.671875 -0.859375 -2.6875q-0.859375 -1.03125 -2.21875 -1.03125q-1.296875 0 -2.171875 1.015625q-0.875 1.0 -0.875 2.703125zm14.290894 -5.140625q1.78125 0 2.578125 0.90625q0.8125 0.90625 0.8125 2.59375l0 6.546875l-1.625 0l0 -6.703125q0 -0.84375 -0.53125 -1.375q-0.53125 -0.546875 -1.484375 -0.546875q-1.359375 0 -2.125 0.84375q-0.765625 0.828125 -0.765625 2.171875l0 5.609375l-1.609375 0l0 -9.828125l1.515625 0l0 1.5625l0.046875 0q0.53125 -0.921875 1.3125 -1.34375q0.78125 -0.4375 1.875 -0.4375z" fill-rule="nonzero"></path><path fill="#000000" d="m808.92017 271.71826q2.0 0 2.84375 0.71875q0.84375 0.703125 0.84375 1.90625q0 5.109375 0 5.671875q0 0.546875 0.5 0.546875q0.109375 0 0.234375 -0.015625q0.140625 -0.03125 0.265625 -0.078125l0 1.265625q-0.234375 0.125 -0.53125 0.1875q-0.28125 0.078125 -0.625 0.078125q-0.671875 0 -1.03125 -0.375q-0.34375 -0.375 -0.34375 -1.15625q-0.640625 0.765625 -1.515625 1.15625q-0.859375 0.375 -1.9375 0.375q-1.53125 0 -2.390625 -0.71875q-0.859375 -0.71875 -0.859375 -2.046875q0 -1.3125 0.84375 -2.09375q0.84375 -0.78125 3.96875 -1.171875q1.0625 -0.125 1.4375 -0.390625q0.375 -0.28125 0.375 -0.8125q0 -0.828125 -0.53125 -1.21875q-0.515625 -0.40625 -1.65625 -0.40625q-1.203125 0 -1.796875 0.453125q-0.59375 0.453125 -0.640625 1.40625l-1.625 0q0.078125 -1.625 1.15625 -2.453125q1.078125 -0.828125 3.015625 -0.828125zm-2.84375 7.40625q0 0.6875 0.5 1.0625q0.5 0.375 1.40625 0.375q1.359375 0 2.171875 -0.671875q0.828125 -0.671875 0.828125 -1.515625l0 -1.6875q-0.40625 0.296875 -1.0625 0.40625q-0.65625 0.09375 -1.71875 0.234375q-1.078125 0.15625 -1.609375 0.59375q-0.515625 0.421875 -0.515625 1.203125zm13.598572 -7.40625q1.78125 0 2.578125 0.90625q0.8125 0.90625 0.8125 2.59375l0 6.546875l-1.625 0l0 -6.703125q0 -0.84375 -0.53125 -1.375q-0.53125 -0.546875 -1.484375 -0.546875q-1.359375 0 -2.125 0.84375q-0.765625 0.828125 -0.765625 2.171875l0 5.609375l-1.609375 0l0 -9.828125l1.515625 0l0 1.5625l0.046875 0q0.53125 -0.921875 1.3125 -1.34375q0.78125 -0.4375 1.875 -0.4375zm14.391296 -3.515625l0 13.5625l-1.609375 0l0 -1.328125l-0.03125 0q-0.390625 0.765625 -1.21875 1.171875q-0.828125 0.390625 -1.921875 0.390625q-2.0625 0 -3.296875 -1.421875q-1.21875 -1.4375 -1.21875 -3.75q0 -2.265625 1.1875 -3.6875q1.203125 -1.421875 3.28125 -1.421875q0.96875 0 1.828125 0.390625q0.875 0.390625 1.359375 1.140625l0.03125 0l0 -5.046875l1.609375 0zm-7.59375 8.734375q0 1.578125 0.8125 2.609375q0.828125 1.015625 2.234375 1.015625q1.421875 0 2.203125 -1.015625q0.796875 -1.03125 0.796875 -2.6875q0 -1.671875 -0.8125 -2.6875q-0.8125 -1.03125 -2.3125 -1.03125q-1.390625 0 -2.15625 1.015625q-0.765625 1.015625 -0.765625 2.78125zm19.148499 -5.21875q2.109375 0 3.28125 1.53125q1.171875 1.515625 1.171875 3.890625l0 0.203125l-7.359375 0l0 0.109375q0 1.40625 0.8125 2.265625q0.828125 0.84375 2.25 0.84375q1.078125 0 1.703125 -0.5q0.640625 -0.5 0.84375 -1.421875l1.59375 0q-0.328125 1.640625 -1.4375 2.5q-1.09375 0.859375 -2.75 0.859375q-1.5625 0 -2.640625 -0.703125q-1.0625 -0.703125 -1.578125 -1.953125q-0.5 -1.25 -0.5 -2.546875q0 -2.171875 1.296875 -3.625q1.3125 -1.453125 3.3125 -1.453125zm-2.90625 4.1875l5.640625 0q-0.078125 -1.1875 -0.875 -1.96875q-0.78125 -0.796875 -1.96875 -0.796875q-1.109375 0 -1.90625 0.75q-0.78125 0.75 -0.890625 2.015625zm9.692322 -3.96875l2.765625 8.1875l0.03125 0l2.6875 -8.1875l1.6875 0l-3.59375 9.828125l-1.71875 0l-3.65625 -9.828125l1.796875 0zm12.5 -0.21875q2.0 0 2.84375 0.71875q0.84375 0.703125 0.84375 1.90625q0 5.109375 0 5.671875q0 0.546875 0.5 0.546875q0.109375 0 0.234375 -0.015625q0.140625 -0.03125 0.265625 -0.078125l0 1.265625q-0.234375 0.125 -0.53125 0.1875q-0.28125 0.078125 -0.625 0.078125q-0.671875 0 -1.03125 -0.375q-0.34375 -0.375 -0.34375 -1.15625q-0.640625 0.765625 -1.515625 1.15625q-0.859375 0.375 -1.9375 0.375q-1.53125 0 -2.390625 -0.71875q-0.859375 -0.71875 -0.859375 -2.046875q0 -1.3125 0.84375 -2.09375q0.84375 -0.78125 3.96875 -1.171875q1.0625 -0.125 1.4375 -0.390625q0.375 -0.28125 0.375 -0.8125q0 -0.828125 -0.53125 -1.21875q-0.515625 -0.40625 -1.65625 -0.40625q-1.203125 0 -1.796875 0.453125q-0.59375 0.453125 -0.640625 1.40625l-1.625 0q0.078125 -1.625 1.15625 -2.453125q1.078125 -0.828125 3.015625 -0.828125zm-2.84375 7.40625q0 0.6875 0.5 1.0625q0.5 0.375 1.40625 0.375q1.359375 0 2.171875 -0.671875q0.828125 -0.671875 0.828125 -1.515625l0 -1.6875q-0.40625 0.296875 -1.0625 0.40625q-0.65625 0.09375 -1.71875 0.234375q-1.078125 0.15625 -1.609375 0.59375q-0.515625 0.421875 -0.515625 1.203125zm10.551697 -10.921875l0 13.5625l-1.609375 0l0 -13.5625l1.609375 0zm4.0510864 3.734375l0 6.703125q0 0.828125 0.53125 1.375q0.53125 0.546875 1.46875 0.546875q1.390625 0 2.140625 -0.84375q0.765625 -0.84375 0.765625 -2.171875l0 -5.609375l1.625 0l0 9.828125l-1.53125 0l0 -1.5625l-0.03125 0q-0.546875 0.9375 -1.359375 1.375q-0.796875 0.421875 -1.84375 0.421875q-1.71875 0 -2.546875 -0.890625q-0.828125 -0.890625 -0.828125 -2.625l0 -6.546875l1.609375 0zm12.781982 -0.21875q2.0 0 2.84375 0.71875q0.84375 0.703125 0.84375 1.90625q0 5.109375 0 5.671875q0 0.546875 0.5 0.546875q0.109375 0 0.234375 -0.015625q0.140625 -0.03125 0.265625 -0.078125l0 1.265625q-0.234375 0.125 -0.53125 0.1875q-0.28125 0.078125 -0.625 0.078125q-0.671875 0 -1.03125 -0.375q-0.34375 -0.375 -0.34375 -1.15625q-0.640625 0.765625 -1.515625 1.15625q-0.859375 0.375 -1.9375 0.375q-1.53125 0 -2.390625 -0.71875q-0.859375 -0.71875 -0.859375 -2.046875q0 -1.3125 0.84375 -2.09375q0.84375 -0.78125 3.96875 -1.171875q1.0625 -0.125 1.4375 -0.390625q0.375 -0.28125 0.375 -0.8125q0 -0.828125 -0.53125 -1.21875q-0.515625 -0.40625 -1.65625 -0.40625q-1.203125 0 -1.796875 0.453125q-0.59375 0.453125 -0.640625 1.40625l-1.625 0q0.078125 -1.625 1.15625 -2.453125q1.078125 -0.828125 3.015625 -0.828125zm-2.84375 7.40625q0 0.6875 0.5 1.0625q0.5 0.375 1.40625 0.375q1.359375 0 2.171875 -0.671875q0.828125 -0.671875 0.828125 -1.515625l0 -1.6875q-0.40625 0.296875 -1.0625 0.40625q-0.65625 0.09375 -1.71875 0.234375q-1.078125 0.15625 -1.609375 0.59375q-0.515625 0.421875 -0.515625 1.203125zm11.082947 -10.125l0 2.9375l1.96875 0l0 1.4375l-1.96875 0l0 6.140625q0 0.734375 0.484375 0.78125q0.5 0.046875 1.03125 0.046875l0.453125 0l0 1.421875l-1.34375 0q-1.328125 0 -1.78125 -0.46875q-0.453125 -0.484375 -0.453125 -1.59375l0 -6.328125l-1.671875 0l0 -1.4375l1.671875 0l0 -2.9375l1.609375 0zm5.3443604 -0.796875l0 1.96875l-1.609375 0l0 -1.96875l1.609375 0zm0 3.734375l0 9.828125l-1.609375 0l0 -9.828125l1.609375 0zm6.6760864 -0.21875q2.234375 0 3.5 1.4375q1.265625 1.4375 1.265625 3.703125q0 2.296875 -1.296875 3.71875q-1.296875 1.421875 -3.46875 1.421875q-2.125 0 -3.453125 -1.390625q-1.3125 -1.40625 -1.3125 -3.75q0 -2.328125 1.28125 -3.734375q1.296875 -1.40625 3.484375 -1.40625zm-3.0625 5.140625q0 1.703125 0.859375 2.703125q0.875 1.0 2.203125 1.0q1.328125 0 2.1875 -1.0q0.875 -1.015625 0.875 -2.703125q0 -1.671875 -0.859375 -2.6875q-0.859375 -1.03125 -2.21875 -1.03125q-1.296875 0 -2.171875 1.015625q-0.875 1.0 -0.875 2.703125zm14.290894 -5.140625q1.78125 0 2.578125 0.90625q0.8125 0.90625 0.8125 2.59375l0 6.546875l-1.625 0l0 -6.703125q0 -0.84375 -0.53125 -1.375q-0.53125 -0.546875 -1.484375 -0.546875q-1.359375 0 -2.125 0.84375q-0.765625 0.828125 -0.765625 2.171875l0 5.609375l-1.609375 0l0 -9.828125l1.515625 0l0 1.5625l0.046875 0q0.53125 -0.921875 1.3125 -1.34375q0.78125 -0.4375 1.875 -0.4375z" fill-rule="nonzero"></path><path fill="#000000" fill-opacity="0.0" d="m174.6588 118.91601l38.401764 0l0 144.94489l38.41713 0" fill-rule="nonzero"></path><path stroke="#595959" stroke-width="2.0" stroke-linejoin="round" stroke-linecap="butt" d="m174.6588 118.91601l38.401764 0l0 144.94489l38.41713 0" fill-rule="nonzero"></path><path fill="#000000" fill-opacity="0.0" d="m174.6588 263.84515l76.81889 0" fill-rule="nonzero"></path><path stroke="#595959" stroke-width="2.0" stroke-linejoin="round" stroke-linecap="butt" d="m174.6588 263.84515l64.81889 0" fill-rule="evenodd"></path><path fill="#595959" stroke="#595959" stroke-width="2.0" stroke-linecap="butt" d="m239.47769 267.14862l9.076187 -3.3034668l-9.076187 -3.3034668z" fill-rule="evenodd"></path><path fill="#000000" fill-opacity="0.0" d="m174.6588 402.58005l38.401764 0l0 -138.74014l38.41713 0" fill-rule="nonzero"></path><path stroke="#595959" stroke-width="2.0" stroke-linejoin="round" stroke-linecap="butt" d="m174.6588 402.58005l38.401764 0l0 -138.74014l38.41713 0" fill-rule="nonzero"></path><path fill="#000000" fill-opacity="0.0" d="m372.84778 263.84515l53.228333 0" fill-rule="nonzero"></path><path stroke="#595959" stroke-width="2.0" stroke-linejoin="round" stroke-linecap="butt" d="m372.84778 263.84515l41.228333 0" fill-rule="evenodd"></path><path fill="#595959" stroke="#595959" stroke-width="2.0" stroke-linecap="butt" d="m414.0761 267.14862l9.076202 -3.3034668l-9.076202 -3.3034668z" fill-rule="evenodd"></path><path fill="#000000" fill-opacity="0.0" d="m572.26117 263.84515l48.881897 0" fill-rule="nonzero"></path><path stroke="#595959" stroke-width="2.0" stroke-linejoin="round" stroke-linecap="butt" d="m572.26117 263.84515l36.881897 0" fill-rule="evenodd"></path><path fill="#595959" stroke="#595959" stroke-width="2.0" stroke-linecap="butt" d="m609.14307 267.14862l9.076172 -3.3034668l-9.076172 -3.3034668z" fill-rule="evenodd"></path><path fill="#000000" fill-opacity="0.0" d="m742.5381 263.84515l48.881836 0" fill-rule="nonzero"></path><path stroke="#595959" stroke-width="2.0" stroke-linejoin="round" stroke-linecap="butt" d="m742.5381 263.84515l36.881836 0" fill-rule="evenodd"></path><path fill="#595959" stroke="#595959" stroke-width="2.0" stroke-linecap="butt" d="m779.4199 267.14862l9.076233 -3.3034668l-9.076233 -3.3034668z" fill-rule="evenodd"></path></g></svg>

